/* XPM */
static char *bookmark_add[] = {
/* columns rows colors chars-per-pixel */
"22 22 143 2",
"   c black",
".  c #204000",
"X  c #2F5000",
"o  c #50782F",
"O  c #6FB81F",
"+  c #B62E00",
"@  c #B83000",
"#  c #BA3100",
"$  c #C33D00",
"%  c #C43D00",
"&  c #C43E00",
"*  c #C53F00",
"=  c #C54000",
"-  c #C74000",
";  c #C74100",
":  c #C94100",
">  c #C94400",
",  c #C94700",
"<  c #CC4600",
"1  c #CF4900",
"2  c #D24C00",
"3  c #D44E00",
"4  c #D54F00",
"5  c #D55000",
"6  c #D85000",
"7  c #D85200",
"8  c #D95400",
"9  c #D95500",
"0  c #DA5500",
"q  c #DA5600",
"w  c #DC5700",
"e  c #DD5600",
"r  c #DD5A00",
"t  c #DF5B00",
"y  c #DF5C00",
"u  c #D96B09",
"i  c #DA6E0B",
"p  c #E35900",
"a  c #E05D00",
"s  c #E35F00",
"d  c #E26600",
"f  c #E56200",
"g  c #E56400",
"h  c #E76500",
"j  c #E96600",
"k  c #EE6100",
"l  c #EA6800",
"z  c #EC6900",
"x  c #EF6B00",
"c  c #EE6C00",
"v  c #EE6D00",
"b  c #EF6E00",
"n  c #EC7600",
"m  c #F46200",
"M  c #F96100",
"N  c #F17000",
"B  c #F17100",
"V  c #F27100",
"C  c #F27300",
"Z  c #F47400",
"A  c #F47500",
"S  c #F67500",
"D  c #F67600",
"F  c #F27900",
"G  c #F87700",
"H  c #FF7000",
"J  c #FE7500",
"K  c #F87900",
"L  c #F97A00",
"P  c #FB7C00",
"I  c #FF7C00",
"U  c #FF7D00",
"Y  c #8FE03F",
"T  c #EE8B00",
"R  c #EE9000",
"E  c #EE9400",
"W  c #EC941E",
"Q  c #F48200",
"!  c #FE8100",
"~  c #FF8500",
"^  c #FF8700",
"/  c #F88F00",
"(  c #FF8800",
")  c #FF8A00",
"_  c #FF8B00",
"`  c DarkOrange",
"'  c #FF8F00",
"]  c #FD9400",
"[  c #FF9600",
"{  c #FF9900",
"}  c #FE9E0B",
"|  c #F69913",
" . c #F99D13",
".. c #E7922A",
"X. c #FDA300",
"o. c #FFA600",
"O. c #FFA10B",
"+. c #F4AF19",
"@. c #F8A21E",
"#. c #FFB300",
"$. c #FDB107",
"%. c #FFBD09",
"&. c #FEBD10",
"*. c #ECA137",
"=. c #FEB32A",
"-. c #FEBA37",
";. c #FDBE39",
":. c #F1AE45",
">. c #F8B845",
",. c #FFC100",
"<. c #FFC900",
"1. c #FFCF00",
"2. c #FFC908",
"3. c #FFC410",
"4. c #FFD900",
"5. c #FFDD00",
"6. c #FFDC03",
"7. c #FFE900",
"8. c #FFEC00",
"9. c #FFFB00",
"0. c #FFFB01",
"q. c yellow",
"w. c #FFFF03",
"e. c #FFFF0B",
"r. c #FFFD19",
"t. c #FFFF1B",
"y. c #FFF121",
"u. c #FFFF2F",
"i. c #FDC145",
"p. c #FEDA57",
"a. c #FFDC57",
"s. c #FBD474",
"d. c #FFDC74",
"f. c #FFFF47",
"g. c #FFF950",
"h. c #FFFB50",
"j. c #FFFE52",
"k. c #FFE074",
"l. c #FFFB6C",
"z. c #FFF87A",
"x. c #CFFF9F",
"c. c gray100",
"v. c None",
/* pixels */
"v.v.v.v.v.v.v.v.v.v.D A v.v.v.v.v.v.v.v.v.v.",
"v.v.v.v.v.v.v.v.v.A D B N v.v.v.v.v.v.v.v.v.",
"v.v.v.v.v.v.v.v.v.D  .| N v.v.v.v.v.v.v.v.v.",
"v.v.v.v.v.v.v.v.v.A a.p.j v.v.v.v.v.v.v.v.v.",
"v.v.v.v.v.v.v.v.A Q u.f.n f v.v.v.v.v.v.v.v.",
"v.v.v.v.v.v.v.v.B ;.w.q.>.s v.v.v.v.v.v.v.v.",
"v.v.v.v.v.v.v.B F h.q.q.g.d t v.v.v.v.v.v.v.",
"v.( ~ ! P K A B @.e.q.q.t.W w 8 5 1 1 < , v.",
"( ~ O.} =.-.i.d.l.q.q.q.q.z.s.:.*...i u & & ",
"( ` k.j.r.t.0.0.0.q.0.0.0.0.0.0.0.t.y.+., & ",
"v.! P 3.7.8.8.8.7.8.8.8.8.8.8.8.7.5.E & & v.",
"v.v.K A %.5.5.5.5.5.5.5.5.5.5.4.2.R : & v.v.",
"v.v.v.A B $.1.1.1.1.1.1.1.1.<.%.T : = v.v.v.",
"v.v.v.v.v z X.,.,.,.,.,.o o o o o . v.v.v.v.",
"v.v.v.v.v.j / #.#.#.#.#.o c.x.x.Y . v.v.v.v.",
"v.v.v.v.v.h ] o.o.o.o.o.o x.Y Y O . v.v.v.v.",
"v.v.v.v.v.f { { { ] ( ] o x.Y Y O . v.v.v.v.",
"v.v.v.v.f l ` ( P H o o o x.Y Y O . . . v.v.",
"v.v.v.v.s x P H k 8 2 X x.x.Y Y O O . v.v.v.",
"v.v.v.v.a m M r 5 3 v.v.X Y Y Y O . v.v.v.v.",
"v.v.v.v.a p 8 8 v.v.v.v.v.X O O . @ v.v.v.v.",
"v.v.v.v.r 8 8 v.v.v.v.v.v.v.. . @ + v.v.v.v."
};
