/* XPM */
static char * build_xpm[] = {
"18 18 122 2",
"  	c None",
". 	c #626262",
"+ 	c #000000",
"@ 	c #191919",
"# 	c #4A4A4A",
"$ 	c #212121",
"% 	c #727272",
"& 	c #AAAAAA",
"* 	c #FFFFFF",
"= 	c #F3F3F3",
"- 	c #BCBCBC",
"; 	c #7D7D7D",
"> 	c #B3B3B3",
", 	c #E3E3E3",
"' 	c #CFCFCF",
") 	c #CACACA",
"! 	c #C2C2C2",
"~ 	c #0F0F0F",
"{ 	c #494949",
"] 	c #787878",
"^ 	c #9A9A9A",
"/ 	c #D0D0D0",
"( 	c #9F9F9F",
"_ 	c #444444",
": 	c #393939",
"< 	c #333333",
"[ 	c #4F4F4F",
"} 	c #575757",
"| 	c #383838",
"1 	c #303030",
"2 	c #3D3D3D",
"3 	c #4C4C4C",
"4 	c #A6A6A6",
"5 	c #6F6F6F",
"6 	c #717171",
"7 	c #F8F8F8",
"8 	c #E0E0E0",
"9 	c #A4A4A4",
"0 	c #9D9D9D",
"a 	c #EFEFEF",
"b 	c #D6D6D6",
"c 	c #959595",
"d 	c #3C3C3C",
"e 	c #4B4B4B",
"f 	c #464646",
"g 	c #898989",
"h 	c #2C2C2C",
"i 	c #323232",
"j 	c #6A6A6A",
"k 	c #DADADA",
"l 	c #C6C6C6",
"m 	c #A8A8A8",
"n 	c #A3A3A3",
"o 	c #DFDFDF",
"p 	c #C9C9C9",
"q 	c #C3C3C3",
"r 	c #C8C8C8",
"s 	c #BFBFBF",
"t 	c #A2A2A2",
"u 	c #595959",
"v 	c #363636",
"w 	c #242424",
"x 	c #585858",
"y 	c #AEAEAE",
"z 	c #9B9B9B",
"A 	c #5B5B5B",
"B 	c #8E8E8E",
"C 	c #5C5C5C",
"D 	c #929292",
"E 	c #B6B6B6",
"F 	c #151515",
"G 	c #4E4E4E",
"H 	c #3F3F3F",
"I 	c #343434",
"J 	c #2D2D2D",
"K 	c #505050",
"L 	c #5A5A5A",
"M 	c #252525",
"N 	c #8A8A8A",
"O 	c #868686",
"P 	c #5E5E5E",
"Q 	c #313131",
"R 	c #414141",
"S 	c #404040",
"T 	c #080808",
"U 	c #6D6D6D",
"V 	c #979797",
"W 	c #666666",
"X 	c #2A2A2A",
"Y 	c #686868",
"Z 	c #8C8C8C",
"` 	c #C4C4C4",
" .	c #EDEDED",
"..	c #A1A1A1",
"+.	c #D7D7D7",
"@.	c #292929",
"#.	c #111111",
"$.	c #1D1D1D",
"%.	c #616161",
"&.	c #8F8F8F",
"*.	c #121212",
"=.	c #161616",
"-.	c #050505",
";.	c #474747",
">.	c #3B3B3B",
",.	c #6E6E6E",
"'.	c #0E0E0E",
").	c #1F1F1F",
"!.	c #373737",
"~.	c #0C0C0C",
"{.	c #5D5D5D",
"].	c #0B0B0B",
"^.	c #525252",
"/.	c #3E3E3E",
"(.	c #202020",
"_.	c #131313",
":.	c #020202",
"<.	c #777777",
"[.	c #535353",
"}.	c #282828",
"|.	c #696969",
"1.	c #545454",
". + + @ # $ + + + + . % &           ",
"+ * = - ; > , ' ) ! + ~ { ] ^       ",
"+ = / ( _ : < [ } : | 1 1 2 3 ;     ",
"+ ) 4 5 6 7 8 9 0 * a b b c d e f g ",
"h . # i j k l m n o p q q r s t u | ",
"; v v w x y z 6 A B t t z ] C D E F ",
"      G H I J K L M N O P Q R v S T ",
"        U 3 3 V j + ; W X K   G 3 3 ",
"        Y i Z ` U +  ...$ .         ",
"        P + + + } + +.V $ .         ",
"        _ | @.#.K + s O $.P         ",
"        R R %.&.*.=.+ -.~ ;.        ",
"        v >.[ ,.'.j ).).!.v         ",
"        v R L Y ~.5 # !.1 Q         ",
"        v R L {.].5 # !.1 h         ",
"        H H ^.A ].% S : !.h         ",
"        ,./.(._.:.<.[.I }.h         ",
"              |.~.5 !.I >.1.        "};
