/* XPM */
static char *button_cancel[] = {
/* columns rows colors chars-per-pixel */
"22 22 75 1",
"  c black",
". c #C40000",
"X c #C50300",
"o c #C60500",
"O c #C60700",
"+ c #C70900",
"@ c #C80C00",
"# c #C90E00",
"$ c #CA0E00",
"% c #CA0F00",
"& c #CC1100",
"* c #CC1400",
"= c #CD1700",
"- c #CF1800",
"; c #D11B00",
": c #D11E00",
"> c #D21F00",
", c #D32100",
"< c #D52300",
"1 c #D62600",
"2 c #D82900",
"3 c #DA2C00",
"4 c #DB2F00",
"5 c #DE3200",
"6 c #E90000",
"7 c #E90900",
"8 c #EA1D03",
"9 c #FE0000",
"0 c #FE0A00",
"q c #FE1A02",
"w c #EA2F08",
"e c #E03500",
"r c #E23800",
"t c #E43C00",
"y c #E63F00",
"u c #FE2906",
"i c #FE350B",
"p c #E84300",
"a c #E94300",
"s c #E94400",
"d c #EB4712",
"f c #EE4310",
"g c #EE4B15",
"h c #EC4C15",
"j c #ED5A1D",
"k c #EE5F1F",
"l c #FE4010",
"z c #FE4B16",
"x c #FE561D",
"c c #EF722D",
"v c #F16525",
"b c #F16C2A",
"n c #FE6025",
"m c #FE692C",
"M c #F07D35",
"N c #FE7234",
"B c #FE7B3C",
"V c #F2873D",
"C c #FE8445",
"Z c #FE8B4D",
"A c #F39045",
"S c #F59A4D",
"D c #F69D50",
"F c #FE9356",
"G c #FE9B5F",
"H c #FEA166",
"J c #FEA870",
"K c #FEAE78",
"L c #FEB480",
"P c #FEBA89",
"I c #FEC091",
"U c #FEC69A",
"Y c #FECBA2",
"T c gray100",
"R c None",
/* pixels */
"RRRRRRRRRRRRRRRRRRRRRR",
"RRRRssRRRRRRRRRR,>RRRR",
"RRRssttRRRRRRRR>>--RRR",
"RRspDSreRRRRRR>>kj-&RR",
"RssDYUA54RRRR>>kBNg&%R",
"RptSUIPV42RR>>kBNmd%%R",
"RRtrAPLKM<,>>kBNmd%%RR",
"RRRe5VKJHc>>kBNmd%%RRR",
"RRRR44MHGFbvBNmd%%RRRR",
"RRRRR2<cFZCBNmd%%RRRRR",
"RRRRRR,,bCBNmg%%RRRRRR",
"RRRRRR>>vBNmnf%+RRRRRR",
"RRRRR>>kBNmnxzw+ORRRRR",
"RRRR>-kBNmgfzli8OORRRR",
"RRR>>kBNmd%%wiuq7XXRRR",
"RR>>kBNmd%%%+8q096XXRR",
"R>>kBNmd%%RROO79996..R",
"R>;jNmd%%RRRROX6996..R",
"RR==gd%%RRRRRRXX66.XRR",
"RRR=%%%RRRRRRRRX...RRR",
"RRRR%%RRRRRRRRRRXXRRRR",
"RRRRRRRRRRRRRRRRRRRRRR"
};
