/* XPM */
static char *close_xpm[]={
"18 18 67 2",
"Qt c None",
".H c #000000",
".# c #090405",
".q c #0b0004",
".c c #0d0507",
".y c #0f0005",
".a c #100709",
".I c #110005",
".x c #130006",
".i c #13080b",
".G c #160007",
".f c #190b0e",
".m c #1c0c10",
".1 c #212121",
".5 c #261d20",
".Y c #281d21",
".C c #2c2c2c",
".9 c #2f2025",
".T c #30272a",
".b c #312a2c",
"#a c #322126",
".B c #362d30",
".g c #392e31",
"## c #5b001e",
".z c #690022",
".N c #6b0023",
".U c #6f0024",
".p c #721833",
".7 c #740026",
".3 c #750026",
".F c #760027",
".w c #770027",
".d c #782c40",
".S c #790028",
".X c #7e0029",
"#. c #7e002a",
".4 c #810d32",
".n c #8a3048",
".h c #8d324a",
".6 c #91143b",
".r c #982e4c",
".D c #983a52",
".l c #9b3450",
".e c #a33955",
".L c #aa475f",
".K c #b1435f",
".8 c #c20040",
".A c #c60042",
".0 c #c6536f",
".s c #c70042",
".O c #ca0043",
".v c #cb0043",
".M c #cc0044",
".V c #ce0044",
".R c #d00045",
".2 c #d40046",
".W c #d50047",
".t c #dc0049",
".Z c #e00c51",
".P c #e31557",
".Q c #e41859",
".J c #e51c5b",
".k c #e6205e",
".u c #e7215f",
".E c #e82561",
".o c #e92863",
".j c #ec3068",
"QtQtQtQtQtQtQtQtQtQtQtQtQtQtQtQtQtQt",
"QtQtQt.#.aQtQtQtQtQtQtQtQt.b.cQtQtQt",
"QtQt.c.d.e.fQtQtQtQtQtQt.g.h.h.iQtQt",
"Qt.#.d.j.k.l.mQtQtQtQt.g.n.o.o.p.qQt",
"Qt.a.r.s.t.u.l.fQtQt.b.h.o.t.v.w.xQt",
"QtQt.y.z.A.t.k.e.B.C.D.E.t.v.F.G.HQt",
"QtQtQt.I.z.s.t.J.K.L.k.t.M.w.G.HQtQt",
"QtQtQtQt.y.N.O.t.P.Q.t.R.S.x.HQtQtQt",
"QtQtQtQtQt.T.U.V.t.t.W.X.Y.HQtQtQtQt",
"QtQtQtQtQt.C.L.Q.t.t.Z.0.1QtQtQtQtQt",
"QtQtQtQt.c.D.k.t.W.2.t.P.K.aQtQtQtQt",
"QtQtQt.i.h.E.t.R.X.3.V.t.J.e.fQtQtQt",
"QtQt.i.n.o.t.M.S.Y.1.U.O.t.k.l.mQtQt",
"Qt.q.4.o.t.v.w.x.HQt.5.N.s.t.u.6.GQt",
"Qt.q.7.8.v.F.G.HQtQtQt.9.z.A.A#..GQt",
"QtQt.q##.w.G.HQtQtQtQtQt#a.z.z.IQtQt",
"QtQtQt.q.x.HQtQtQtQtQtQtQt.9.yQtQtQt",
"QtQtQtQtQtQtQtQtQtQtQtQtQtQtQtQtQtQt"};
