/* XPM */
static char * compile_xpm[] = {
"18 18 102 2",
"  	c None",
". 	c #757575",
"+ 	c #575757",
"@ 	c #7E7E7E",
"# 	c #838383",
"$ 	c #707070",
"% 	c #777777",
"& 	c #1A1A1A",
"* 	c #262626",
"= 	c #292929",
"- 	c #0B0B0B",
"; 	c #303030",
"> 	c #373737",
", 	c #2D2D2D",
"' 	c #1C1C1C",
") 	c #181818",
"! 	c #6A6A6A",
"~ 	c #979797",
"{ 	c #A4A4A4",
"] 	c #3A3A3A",
"^ 	c #424242",
"/ 	c #B3B3B3",
"( 	c #747474",
"_ 	c #333333",
": 	c #676767",
"< 	c #727272",
"[ 	c #1D1D1D",
"} 	c #717171",
"| 	c #212121",
"1 	c #444444",
"2 	c #4E4E4E",
"3 	c #5A5A5A",
"4 	c #616161",
"5 	c #5D5D5D",
"6 	c #626262",
"7 	c #404040",
"8 	c #1F1F1F",
"9 	c #4A4A4A",
"0 	c #4D4D4D",
"a 	c #515151",
"b 	c #545454",
"c 	c #232323",
"d 	c #505050",
"e 	c #414141",
"f 	c #0D0D0D",
"g 	c #0F0F0F",
"h 	c #000000",
"i 	c #272727",
"j 	c #434343",
"k 	c #3C3C3C",
"l 	c #585858",
"m 	c #171717",
"n 	c #3E3E3E",
"o 	c #323232",
"p 	c #2E2E2E",
"q 	c #3B3B3B",
"r 	c #313131",
"s 	c #4B4B4B",
"t 	c #252525",
"u 	c #B6B6B6",
"v 	c #C9C9C9",
"w 	c #7B7B7B",
"x 	c #1B1B1B",
"y 	c #060606",
"z 	c #2A2A2A",
"A 	c #4C4C4C",
"B 	c #AEAEAE",
"C 	c #B9B9B9",
"D 	c #6F6F6F",
"E 	c #191919",
"F 	c #959595",
"G 	c #9A9A9A",
"H 	c #5F5F5F",
"I 	c #080808",
"J 	c #0A0A0A",
"K 	c #1E1E1E",
"L 	c #636363",
"M 	c #363636",
"N 	c #878787",
"O 	c #787878",
"P 	c #8A8A8A",
"Q 	c #7A7A7A",
"R 	c #101010",
"S 	c #797979",
"T 	c #555555",
"U 	c #696969",
"V 	c #202020",
"W 	c #0C0C0C",
"X 	c #686868",
"Y 	c #666666",
"Z 	c #6B6B6B",
"` 	c #525252",
" .	c #151515",
"..	c #595959",
"+.	c #6E6E6E",
"@.	c #565656",
"#.	c #131313",
"$.	c #646464",
"%.	c #040404",
"&.	c #222222",
"*.	c #070707",
"=.	c #050505",
"                                    ",
"      . + + + @     # + + + $       ",
"    % & * = - ;     > - , ' ) !     ",
"    . ; ~ { , ]     ^ , / ( _ :     ",
"    < [ ! } | 1 + + 2 ' < 3 * 4     ",
"    5 | 6 7 8 9 0   a 8 ] b c d     ",
"  5 1 d e f | + g h 5 i - ] j k     ",
"  l m n o i p ] = i q ; i r ] & s   ",
"  + t u v w x   y y   z u v w ) A   ",
"  + c B C D E   h h   c B C D E A   ",
"  k i F G H E I - - J K F G L c M   ",
"N f O P P 5 E A 6 6 + [ P P w Q & O ",
"6 R N S Q T E A     + ) S Q U # V + ",
"6 W X Y Z ` E A     +  .Y Z 5 : ) + ",
"6 J ..X +.@.x A     + #.$.+.@.A R + ",
"6 %.&.= z K J A     + *.* z K & =.+ ",
"  A A A A A A         A A A A A A   ",
"                                    "};
