/* XPM */
static char * copy_xpm[] = {
"18 18 125 2",
"  	c None",
". 	c #B6B6B6",
"+ 	c #6E6E6E",
"@ 	c #020303",
"# 	c #131A1A",
"$ 	c #191717",
"% 	c #141C1C",
"& 	c #0B0E0E",
"* 	c #141414",
"= 	c #0E0E0E",
"- 	c #696969",
"; 	c #AEAEAE",
"> 	c #111B1B",
", 	c #AEE1E1",
"' 	c #E8C8C8",
") 	c #BCF9F9",
"! 	c #C1FEFE",
"~ 	c #6A7E7E",
"{ 	c #BEBEBE",
"] 	c #909090",
"^ 	c #494949",
"/ 	c #5E5E5E",
"( 	c #A7A7A7",
"_ 	c #131717",
": 	c #BCC8C8",
"< 	c #EEC3C3",
"[ 	c #D3EDED",
"} 	c #E2EEEE",
"| 	c #818181",
"1 	c #B2B2B2",
"2 	c #B9B9B9",
"3 	c #2D2D2D",
"4 	c #797979",
"5 	c #979797",
"6 	c #121919",
"7 	c #B5D4D4",
"8 	c #EBC6C6",
"9 	c #C8F3F3",
"0 	c #AFC2C2",
"a 	c #5B5B5B",
"b 	c #3D3D3D",
"c 	c #A5A5A5",
"d 	c #99ACAC",
"e 	c #252525",
"f 	c #3D6E6E",
"g 	c #876767",
"h 	c #628E8E",
"i 	c #547676",
"j 	c #3F3F3F",
"k 	c #7A7A7A",
"l 	c #A8A8A8",
"m 	c #9FABAB",
"n 	c #83A0A0",
"o 	c #F5B4B4",
"p 	c #C4DEDE",
"q 	c #D5EFEF",
"r 	c #B9CDCD",
"s 	c #D8D8D8",
"t 	c #858585",
"u 	c #383838",
"v 	c #707070",
"w 	c #92ADAD",
"x 	c #75BABA",
"y 	c #F3B8B8",
"z 	c #B7F4F4",
"A 	c #BDFAFA",
"B 	c #A3D2D2",
"C 	c #7E7E7E",
"D 	c #FBFBFB",
"E 	c #D9D9D9",
"F 	c #414141",
"G 	c #565656",
"H 	c #141515",
"I 	c #C3BBBB",
"J 	c #F1C0C0",
"K 	c #DFE8E8",
"L 	c #A5A9A9",
"M 	c #8A9494",
"N 	c #F6B2B2",
"O 	c #CBD3D3",
"P 	c #E1EAEA",
"Q 	c #CED5D5",
"R 	c #7C7C7C",
"S 	c #292929",
"T 	c #101C1C",
"U 	c #A7EEEE",
"V 	c #E5CBCB",
"W 	c #B1FFFF",
"X 	c #8CAEAE",
"Y 	c #6EC6C6",
"Z 	c #F2BABA",
"` 	c #3B5555",
" .	c #EDF6F6",
"..	c #F6FFFF",
"+.	c #F0F9F9",
"@.	c #4E5151",
"#.	c #0C1616",
"$.	c #82B9B9",
"%.	c #B29E9E",
"&.	c #8AC6C6",
"*.	c #7A9595",
"=.	c #C0FDFD",
"-.	c #C2FFFF",
";.	c #C1FDFD",
">.	c #405454",
",.	c #868686",
"'.	c #4D4D4D",
").	c #DEF8F8",
"!.	c #E5FFFF",
"~.	c #E0FAFA",
"{.	c #495252",
"].	c #8E8E8E",
"^.	c #7CADAD",
"/.	c #F4B6B6",
"(.	c #BEE9E9",
"_.	c #C9F4F4",
":.	c #CFFBFB",
"<.	c #D4FFFF",
"[.	c #D0FCFC",
"}.	c #455353",
"|.	c #254242",
"1.	c #513E3E",
"2.	c #A6A6A6",
"3.	c #949494",
"4.	c #B4B4B4",
". + + + + + + + + .                 ",
"+ @ # $ % % & * = - ;               ",
"+ > , ' ) ! ~ { ] ^ / (             ",
"+ _ : < [ } | 1 2 + 3 4 5           ",
"+ 6 7 8 9 0 a b b b b b b b + c     ",
"+ 6 7 8 9 d e f g h h i j / ^ k l   ",
"+ _ : < [ m e n o p q r k s t u v ; ",
"+ > , ' ) w e x y z A B C D E F G ; ",
"+ H I J K L e M N O P Q v C R S G ; ",
"+ T U V W X e Y Z W W W W W W ` G ; ",
"+ H I J K L e M N O P  .....+.@.G ; ",
"+ #.$.%.&.*.e x y z A =.-.-.;.>.G ; ",
",.e e e e '.e n o p q ).!.!.~.{.G ; ",
". ].].].].R e ^./.(._.:.<.<.[.}.G ; ",
"          | e ^./.(._.:.<.<.[.}.G ; ",
"          + e |.1.` ` ` ` ` ` % G ; ",
"          2.v G G G G G G G G G 3.4.",
"            ; ; ; ; ; ; ; ; ; ; 4.  "};
