/* XPM */
static char *cut_xpm[]={
"18 18 93 2",
"Qt c None",
".E c #000000",
"#a c #080808",
".d c #090909",
".9 c #0c0c0c",
".8 c #0d0d0d",
".S c #0e0e0e",
".a c #0f0f0f",
".c c #101010",
"#b c #111111",
"#k c #131313",
".s c #141414",
"#. c #151515",
".I c #181818",
".j c #191919",
".P c #1b1b1b",
".q c #1c1c1c",
".g c #1f1f1f",
".y c #222222",
".A c #242424",
".o c #262626",
".l c #272727",
"#i c #282828",
".Z c #292929",
".Q c #2a2a2a",
"#p c #2c2c2c",
".e c #2d2d2d",
".U c #2e2e2e",
".# c #303030",
".h c #353535",
".p c #363636",
"#g c #3b3b3b",
".b c #3c3c3c",
".i c #3f3f3f",
"#y c #424242",
"#s c #454545",
".5 c #484848",
"#A c #494949",
".7 c #4a4a4a",
"#o c #4c4c4c",
"#x c #535353",
"#z c #585858",
".D c #5b5b5b",
".M c #5f5f5f",
"#d c #646464",
".4 c #6c6c6c",
".w c #6e6e6e",
"#j c #727272",
"#v c #747474",
"## c #797979",
".Y c #7a7a7a",
".t c #828282",
".R c #838383",
".W c #858585",
"#h c #8a8a8a",
".z c #8c8c8c",
".B c #8e8e8e",
".x c #8f8f8f",
"#c c #919191",
".6 c #929292",
".H c #939393",
".J c #949494",
".0 c #979797",
".f c #999999",
".O c #9b9b9b",
".N c #9c9c9c",
".T c #9d9d9d",
".k c #a1a1a1",
".X c #a5a5a5",
".3 c #aaaaaa",
".v c #ababab",
".n c #afafaf",
".F c #b0b0b0",
"#f c #b2b2b2",
"#e c #b6b6b6",
".2 c #b7b7b7",
".C c #b9b9b9",
".m c #c6c6c6",
"#q c #c7c7c7",
"#r c #cdcdcd",
"#l c #cfcfcf",
"#m c #d4d4d4",
"#t c #d6d6d6",
".G c #d7d7d7",
".r c #d8d8d8",
".L c #dadada",
"#n c #e1e1e1",
".u c #e3e3e3",
".K c #e4e4e4",
".1 c #e6e6e6",
"#u c #ececec",
"#w c #efefef",
".V c #f0f0f0",
"QtQtQtQtQtQtQtQtQtQtQtQtQtQtQtQtQtQt",
"QtQt.#.a.#QtQtQtQtQtQtQtQt.b.c.dQtQt",
"QtQt.e.f.g.hQtQtQtQtQtQt.i.j.k.#QtQt",
"QtQt.l.m.n.o.pQtQtQtQt.i.q.f.r.#QtQt",
"QtQt.s.t.u.v.o.h.wQt.b.j.f.r.x.yQtQt",
"QtQt.h.q.z.u.n.g.#.p.c.k.r.x.A.eQtQt",
"QtQtQt.p.q.B.u.C.D.E.F.G.H.y.e.tQtQt",
"QtQtQtQt.h.I.J.K.L.M.N.O.P.Q.RQtQtQt",
"QtQtQtQt.w.#.S.T.U.V.S.c.A.W.XQtQtQt",
"QtQtQtQtQt.Y.Z.E.0.1.2.I.t.3.3QtQtQt",
"QtQtQt.4.4.#.5.4.I.E.2.B.A.4.4.6QtQt",
"QtQt.7.8.o.A.9#.##.P.E#a.A.o#b.i#cQt",
"Qt.5.8#d#e#f#g.MQt#h.A#iQtQt#j#k.iQt",
".3.E.U#l#m#n#o.MQtQt.4#p#q#r#l#s.EQt",
".3.E.U#t#u.3.A#vQtQtQt#b#j#l#w#x.EQt",
"Qt.5.8#y#x.A#oQtQtQtQt#z#k#s#x.P.iQt",
"QtQt.7.E.E#AQtQtQtQtQtQt#z.E.E.iQtQt",
"QtQtQtQtQtQtQtQtQtQtQtQtQtQtQtQtQtQt"};
