/* XPM */
const static char * icon_xpm[] = {
"32 32 11 1",
" 	c None",
".	c #FFFFFF",
"+	c #C7CAFE",
"@	c #7279FD",
"#	c #3942FD",
"$	c #000CFC",
"%	c #555DFD",
"&	c #8E93FE",
"*	c #E3E4FF",
"=	c #AAAEFE",
"-	c #1D28FC",
"................................",
"................................",
"................................",
"................................",
"................................",
"...........+@#$$$$%&*%$#........",
".........+#$$$$$$$$$$$$$*.......",
"........=$$$$$$%%%$$$$$$&.......",
".......=$$$$$%*....&$$$$-.......",
"......+$$$$$#.......+-$$$+......",
"......#$$$$$*........+$$$@......",
".....+$$$$$%..........&$$-......",
".....@$$$$$=...........#$-*.....",
".....%$$$$$+...........+=.......",
".....$$$$$$.....................",
".....$$$$$$.....................",
".....$$$$$$.....................",
".....-$$$$$.....................",
".....%$$$$$=....................",
".....&$$$$$@...........*$@*.....",
"......$$$$$$*..........-$$#.....",
"......&$$$$$%.........%$$$+.....",
".......#$$$$$%......+#$$$@......",
".......*-$$$$$-@==&#$$$$%.......",
".........%$$$$$$$$$$$$$&........",
"..........+#$$$$$$$$$@*.........",
"............*=@%%%&=............",
"................................",
"................................",
"................................",
"................................",
"................................"};
