/* XPM */
static char *ExecuteScript_xpm[]={
"18 18 11 1",
". c None",
"# c #000000",
"a c #323232",
"i c #489249",
"e c #54aa55",
"b c #565656",
"c c #60c262",
"f c #66ce68",
"d c #6cda6e",
"h c #72e674",
"g c #78f27a",
".......#aa#.......",
"...b...acca...b...",
"..a##.baddab.##a..",
".b#efa#gggg#afe#b.",
"..#fhgggggggghf#..",
"...agggggggggga...",
"..b#gggggggggg#b..",
"#aahgggiaaigghhaa#",
"achhggga##agghddca",
"achhhgga##aghhddca",
"#aahhhgiaaihhddaa#",
"..b#hhhhhhhhdd#b..",
"...adhhhhhdddda...",
"..#fddddddddddf#..",
".b#efa#dddd#afe#b.",
"..a##.baddab.##a..",
"...b...acca...b...",
".......#aa#......."};
