/* XPM */
static char * findnext_xpm[] = {
"18 18 120 2",
"  	c None",
". 	c #9A9A9A",
"+ 	c #6F6F6F",
"@ 	c #626262",
"# 	c #777777",
"$ 	c #AAAAAA",
"% 	c #7F7F7F",
"& 	c #545454",
"* 	c #343434",
"= 	c #161616",
"- 	c #181818",
"; 	c #151515",
"> 	c #484848",
", 	c #575757",
"' 	c #8A8A8A",
") 	c #363636",
"! 	c #9E9EA3",
"~ 	c #CCCCD6",
"{ 	c #D9D9E2",
"] 	c #C3C3CC",
"^ 	c #8C8C8D",
"/ 	c #282828",
"( 	c #424242",
"_ 	c #898989",
": 	c #C9C9CE",
"< 	c #DDDDF1",
"[ 	c #D4D4FF",
"} 	c #C8C8FF",
"| 	c #D1D1FF",
"1 	c #D8D8E9",
"2 	c #C2C2C2",
"3 	c #2B2B2B",
"4 	c #686868",
"5 	c #F2F2FF",
"6 	c #D9D4FF",
"7 	c #BBB1FF",
"8 	c #C2C0FF",
"9 	c #D2D2FF",
"0 	c #D7D7EA",
"a 	c #838383",
"b 	c #393939",
"c 	c #D2C0FF",
"d 	c #C7B1FF",
"e 	c #BFB1FF",
"f 	c #C0BFFF",
"g 	c #B4B4B4",
"h 	c #B3B1FF",
"i 	c #BAB1FF",
"j 	c #CAC9FF",
"k 	c #A9A9A9",
"l 	c #D9D9DE",
"m 	c #454545",
"n 	c #B6B6B6",
"o 	c #000000",
"p 	c #0E0E0E",
"q 	c #3E3E3E",
"r 	c #B2B2B2",
"s 	c #818181",
"t 	c #050505",
"u 	c #4E4E3B",
"v 	c #464300",
"w 	c #1D1B12",
"x 	c #383838",
"y 	c #0A0A0A",
"z 	c #0B1B26",
"A 	c #464C4F",
"B 	c #A9BFBF",
"C 	c #4D5E5E",
"D 	c #5B5706",
"E 	c #AE9209",
"F 	c #7C6A1A",
"G 	c #282415",
"H 	c #333333",
"I 	c #676767",
"J 	c #4A4A4A",
"K 	c #1D1D1D",
"L 	c #307BAA",
"M 	c #23597B",
"N 	c #034B4E",
"O 	c #9BCFCF",
"P 	c #2C2A1F",
"Q 	c #8C781A",
"R 	c #D1B962",
"S 	c #7A6921",
"T 	c #2D2917",
"U 	c #323232",
"V 	c #3C5D71",
"W 	c #205271",
"X 	c #3B96D0",
"Y 	c #48B8FF",
"Z 	c #245D81",
"` 	c #3D3D3D",
" .	c #366464",
"..	c #2B2715",
"+.	c #897621",
"@.	c #CDB55A",
"#.	c #7A6923",
"$.	c #3CAEEC",
"%.	c #20A3EC",
"&.	c #3BB1F9",
"*.	c #24A5EE",
"=.	c #3D6E6E",
"-.	c #312D17",
";.	c #877523",
">.	c #003149",
",.	c #308BC2",
"'.	c #23A4ED",
").	c #033D5B",
"!.	c #004D4D",
"~.	c #625D1A",
"{.	c #1A1A12",
"].	c #0B6798",
"^.	c #043C59",
"/.	c #4C5051",
"(.	c #655F1A",
"_.	c #4C4B09",
":.	c #32322B",
"<.	c #000B10",
"[.	c #005355",
"}.	c #808080",
"      . + @ @ @ # $                 ",
"    % & * = - ; > , '               ",
"  % ) > ! ~ { ] ^ / ( _             ",
". & > : < [ } | 1 2 3 4 .           ",
"+ * ! < 5 6 7 8 9 0 a b +           ",
"@ = ~ [ 6 c d e f [ g = @           ",
"@ - { } 7 d d d h [ 2 = @           ",
"@ ; ] | 8 e d i j [ k = @           ",
"# > ^ 1 9 f h j [ l + m #           ",
"$ , / 2 0 [ [ [ l n o p q           ",
"  ' ( 3 a g 2 r s t u v w x         ",
"    _ 4 b y z A B C D E F G H       ",
"      I J K L M N O P Q R S T U     ",
"o V W W W W X Y Z `  ...+.@.#.T H   ",
"o $.%.%.%.%.&.Y *.o =.H -.;.@.S G x ",
"o >.>.>.>.>.,.'.).!.    U -.+.R ~.{.",
"          o ].^./.        H ..(._.:.",
"          o <.[.            x {.:.}."};
