/* XPM */
static char * findinfiles_xpm[] = {
"18 18 168 2",
"  	c None",
". 	c #9A9A9A",
"+ 	c #6F6F6F",
"@ 	c #626262",
"# 	c #7E7E7E",
"$ 	c #B6B6B6",
"% 	c #7F7F7F",
"& 	c #545454",
"* 	c #383232",
"= 	c #1A1414",
"- 	c #181818",
"; 	c #151515",
"> 	c #484848",
", 	c #575757",
"' 	c #090909",
") 	c #101010",
"! 	c #262626",
"~ 	c #7D7D7D",
"{ 	c #AEAEAE",
"] 	c #363636",
"^ 	c #4A4545",
"/ 	c #C08888",
"( 	c #EFC0C0",
"_ 	c #E2E2E2",
": 	c #CCCCCC",
"< 	c #949494",
"[ 	c #282828",
"} 	c #424242",
"| 	c #878787",
"1 	c #616161",
"2 	c #313131",
"3 	c #505353",
"4 	c #2B4343",
"5 	c #D5C5C5",
"6 	c #FFB1B1",
"7 	c #F7DCDC",
"8 	c #F1FFFF",
"9 	c #C0CECE",
"0 	c #0A2222",
"a 	c #686868",
"b 	c #999999",
"c 	c #656565",
"d 	c #7C7C7C",
"e 	c #252F2F",
"f 	c #1A8080",
"g 	c #A4DBDB",
"h 	c #B3D4D4",
"i 	c #76EFEF",
"j 	c #055A5A",
"k 	c #393939",
"l 	c #969696",
"m 	c #C5C5C5",
"n 	c #474747",
"o 	c #414141",
"p 	c #A3A3A3",
"q 	c #0D1313",
"r 	c #7EBBBB",
"s 	c #B3DBDB",
"t 	c #C0D4D4",
"u 	c #8EEFEF",
"v 	c #6C9999",
"w 	c #161616",
"x 	c #676767",
"y 	c #292929",
"z 	c #FFE5E5",
"A 	c #FFDCDC",
"B 	c #FFFFFF",
"C 	c #C2C2C2",
"D 	c #898989",
"E 	c #3D3D3D",
"F 	c #051515",
"G 	c #57CECE",
"H 	c #E9E5E5",
"I 	c #ECDCDC",
"J 	c #DEFFFF",
"K 	c #2BABAB",
"L 	c #7E9393",
"M 	c #B7F4F4",
"N 	c #526C6C",
"O 	c #777777",
"P 	c #3A4848",
"Q 	c #059191",
"R 	c #65D0D0",
"S 	c #7ECBCB",
"T 	c #18E0E0",
"U 	c #067373",
"V 	c #454545",
"W 	c #9A9D9D",
"X 	c #E0E9E9",
"Y 	c #646767",
"Z 	c #AAAAAA",
"` 	c #CEB4B4",
" .	c #DEDEDE",
"..	c #000000",
"+.	c #0E0E0E",
"@.	c #647E7E",
"#.	c #B1FFFF",
"$.	c #4F7171",
"%.	c #3C3C3C",
"&.	c #232323",
"*.	c #A07373",
"=.	c #D0A4A4",
"-.	c #A9A9A9",
";.	c #707070",
">.	c #4E4E3A",
",.	c #4A4700",
"'.	c #1D1B12",
").	c #5E5E5E",
"!.	c #4C4C4C",
"~.	c #1F1F1F",
"{.	c #4D4242",
"].	c #302424",
"^.	c #575400",
"/.	c #AE9209",
"(.	c #7C6A1A",
"_.	c #282415",
":.	c #1D1D1D",
"<.	c #464646",
"[.	c #373F3F",
"}.	c #CDAEAE",
"|.	c #D6B7B7",
"1.	c #B4CECE",
"2.	c #D1EBEB",
"3.	c #1F1D12",
"4.	c #8C781A",
"5.	c #D1B962",
"6.	c #7A6921",
"7.	c #2D2917",
"8.	c #A1A1A1",
"9.	c #3C4A4A",
"0.	c #D5CACA",
"a.	c #DBD0D0",
"b.	c #BEE9E9",
"c.	c #C2EDED",
"d.	c #C8F3F3",
"e.	c #C9F4F4",
"f.	c #2B2715",
"g.	c #897621",
"h.	c #CDB55A",
"i.	c #7A6923",
"j.	c #6C6C6C",
"k.	c #C0ECEC",
"l.	c #6A8B8B",
"m.	c #312D17",
"n.	c #877523",
"o.	c #383838",
"p.	c #3C4545",
"q.	c #D6C1C1",
"r.	c #DECACA",
"s.	c #C4DEDE",
"t.	c #CBE5E5",
"u.	c #CCE6E6",
"v.	c #CDE7E7",
"w.	c #CCE0E0",
"x.	c #828282",
"y.	c #625D1A",
"z.	c #1A1A12",
"A.	c #0D0D0D",
"B.	c #302828",
"C.	c #332B2B",
"D.	c #2E2E2E",
"E.	c #303030",
"F.	c #333333",
"G.	c #272727",
"H.	c #655F1A",
"I.	c #2E2D09",
"J.	c #2D2D2B",
"K.	c #5A5A5A",
"      . + @ @ @ @ @ @ @ # $         ",
"    % & * = - ; > , ' ) ! ~ {       ",
"  % ] ^ / ( _ : < [ } | 1 2 ~       ",
". 3 4 5 6 7 8 8 8 9 0 a b c ] d     ",
"+ e f g 6 h i i i i j k l m n o p   ",
"@ q r s 6 t u u u u v w x a y o p   ",
"@ - _ z 6 A B B B B C w + D E o p   ",
"@ F G H 6 I J J J J K w L M N o p   ",
"O P Q R 6 S T T T T U V W X Y o p   ",
"Z , [ ` 6 A B B  .$ ..+.@.#.$.o p   ",
"  D %.&.*.=.C -.;...>.,.'.~ ).o p   ",
"    !.~.{.].[ [ c +.^./.(._.:.<.p   ",
"    !.[.}.|.1.1.2.@.3.4.5.6.7.n 8.  ",
"    !.9.0.a.b.c.d.e.~ f.g.h.i.7.j.  ",
"    !.9.0.a.b.c.d.e.k.l.m.n.h.6._.o.",
"    !.p.q.r.s.t.u.u.v.w.x.m.g.5.y.z.",
"    !.A.B.C.D.E.E.E.2 F.G.:.f.H.I.J.",
"    . , , , , , , , , , , K.> z.J.  "};
