/* XPM */
static char * forward_xpm[] = {
"18 18 150 2",
"  	c None",
". 	c #AAAAAA",
"+ 	c #5E5E5E",
"@ 	c #303030",
"# 	c #151515",
"$ 	c #4E4E4E",
"% 	c #8A8A8A",
"& 	c #A2A2A2",
"* 	c #373737",
"= 	c #1E1B03",
"- 	c #7C7616",
"; 	c #8D7D10",
"> 	c #454409",
", 	c #26251F",
"' 	c #7E7E7E",
") 	c #B6B6B6",
"! 	c #646464",
"~ 	c #161600",
"{ 	c #C8AF42",
"] 	c #F8ECCC",
"^ 	c #DDD289",
"/ 	c #BEAD4A",
"( 	c #524704",
"_ 	c #43433C",
": 	c #393939",
"< 	c #726A00",
"[ 	c #F4E8C0",
"} 	c #F0EAC9",
"| 	c #D6CB77",
"1 	c #C0B238",
"2 	c #948610",
"3 	c #423F1C",
"4 	c #979797",
"5 	c #2D2D2D",
"6 	c #7D6F00",
"7 	c #DED38B",
"8 	c #D3C86F",
"9 	c #CCC05D",
"0 	c #BCAA28",
"a 	c #978509",
"b 	c #3C3712",
"c 	c #949494",
"d 	c #575757",
"e 	c #2C2C00",
"f 	c #B6A43E",
"g 	c #C0B035",
"h 	c #BCAA29",
"i 	c #AC9209",
"j 	c #5F5300",
"k 	c #454537",
"l 	c #8F8F8F",
"m 	c #414141",
"n 	c #3A3201",
"o 	c #887E0C",
"p 	c #958208",
"q 	c #5A5100",
"r 	c #3A3624",
"s 	c #727272",
"t 	c #626262",
"u 	c #161616",
"v 	c #202020",
"w 	c #080805",
"x 	c #3E3C26",
"y 	c #2D2910",
"z 	c #27271B",
"A 	c #0C0C0C",
"B 	c #1F1F1F",
"C 	c #090909",
"D 	c #3E3E3E",
"E 	c #BFBFBF",
"F 	c #D7D7D7",
"G 	c #D8D8D8",
"H 	c #DCDCDC",
"I 	c #D2D2D2",
"J 	c #C6C6C6",
"K 	c #C2C2C2",
"L 	c #2B2B2B",
"M 	c #000000",
"N 	c #292929",
"O 	c #0E0E0E",
"P 	c #F2F2F2",
"Q 	c #EDEDED",
"R 	c #DADADA",
"S 	c #CACACA",
"T 	c #28668E",
"U 	c #1D4B68",
"V 	c #020506",
"W 	c #8C8C8C",
"X 	c #52524C",
"Y 	c #DADAD5",
"Z 	c #C7C7C2",
"` 	c #868681",
" .	c #ADADAB",
"..	c #1E2E39",
"+.	c #102939",
"@.	c #2F78A7",
"#.	c #48B8FF",
"$.	c #1C4965",
"%.	c #2D2F31",
"&.	c #323200",
"*.	c #4D4700",
"=.	c #484200",
"-.	c #3C3900",
";.	c #A2A291",
">.	c #59BCF3",
",.	c #30ABF3",
"'.	c #3DB2FA",
").	c #35AEF6",
"!.	c #05131B",
"~.	c #212100",
"{.	c #AC8F00",
"].	c #8C7500",
"^.	c #816D00",
"/.	c #987E00",
"(.	c #544900",
"_.	c #6C6C61",
":.	c #00517A",
"<.	c #288AC4",
"[.	c #33ADF5",
"}.	c #096494",
"|.	c #182226",
"1.	c #7D6A00",
"2.	c #5C5200",
"3.	c #A38700",
"4.	c #413600",
"5.	c #1D1D1D",
"6.	c #2C2C2C",
"7.	c #7D7D7D",
"8.	c #363636",
"9.	c #1E1E1E",
"0.	c #125A83",
"a.	c #0B6290",
"b.	c #1B2931",
"c.	c #4D4D4D",
"d.	c #776400",
"e.	c #493F00",
"f.	c #001B29",
"g.	c #1C2C34",
"h.	c #616161",
"i.	c #725F00",
"j.	c #3A3100",
"k.	c #726C00",
"l.	c #555000",
"m.	c #262400",
"n.	c #706A00",
"o.	c #302E00",
"p.	c #0B0B00",
"q.	c #080800",
"r.	c #040400",
"s.	c #050500",
"                  . + @ # $ %       ",
"                & * = - ; > , '     ",
"              ) ! ~ { ] ^ / ( _ &   ",
"              ) : < [ } | 1 2 3 4   ",
"              ) 5 6 7 8 9 0 a b c   ",
"                d e f g h i j k l   ",
"                % m n o p q r s     ",
"            t u v u w x y z A B C d ",
"          D d u E F G H I J K K L d ",
"          M N O K . P Q R R E S @ d ",
"d d d d @ T U V W X Y Z Z Z `  .@ d ",
"M ..+.+.+.@.#.$.%.&.*.=.=.=.-.;.@ d ",
"M >.,.,.,.'.#.).!.~.{.].^./.(._.v d ",
"M :.:.:.:.<.[.}.|.M {.1.2.3.4.5.6.7.",
"8.8.8.8.9.0.a.b.c.M {.d.e.3.4.m t   ",
"        5.f.g.  h.M {.i.j.3.4.m     ",
"          @     t M k.l.m.n.o.m     ",
"                t M p.q.r.p.s.m     "};
