/* XPM */
static char * FullScreen_xpm[] = {
"18 18 8 1",
" 	c None",
".	c #00FF00",
"+	c #606060",
"@	c #000000",
"#	c #F8C468",
"$	c #B87800",
"%	c #D89000",
"&	c #704800",
" +++++++++++++++  ",
"+@@@@@@@@@@@@@@@+ ",
"+@############$@+ ",
"+@#%%%%%%%%%%%%&@+",
"+@#%%%%%%%%%%%%&@+",
"+@#%%%%%%%%%%%%&@+",
"+@#%%%%%%%%%%%%&@+",
"+@#%%%%%%%%%%%%&@+",
"+@#%%%%%%%%%%%%&@+",
"+@#%%%%%%%%%%%%&@+",
"+@#%%%%%%%%%%%%&@+",
"+@#%%%%%%%%%%%%&@+",
"+@#%%%%%%%%%%%%&@+",
"+@#%%%%%%%%%%%%&@+",
"+@#%%%%%%%%%%%%&@+",
"+@$&&&&&&&&&&&&&@+",
"+@@@@@@@@@@@@@@@@+",
" ++++++++++++++++ "};
