/* XPM */
static char *gohome[] = {
/* columns rows colors chars-per-pixel */
"22 22 233 2",
"   c black",
".  c #003161",
"X  c #003D7A",
"o  c #00468C",
"O  c #00488E",
"+  c #004F9D",
"@  c #01509D",
"#  c #04529F",
"$  c #09529F",
"%  c #0C559F",
"&  c #0855A0",
"*  c #0954A0",
"=  c #0D57A1",
"-  c #0F59A3",
";  c #0F5AA2",
":  c #1059A0",
">  c #1059A1",
",  c #125BA4",
"<  c #1D62A8",
"1  c #286BAF",
"2  c #3F7AB6",
"3  c #3D7ABE",
"4  c #0954D2",
"5  c #0057E9",
"6  c #0059EA",
"7  c #0059ED",
"8  c #0E5EE6",
"9  c #005CF1",
"0  c #005FF4",
"q  c #0E63ED",
"w  c #0061F6",
"e  c #0265F5",
"r  c #0064F9",
"t  c #0165FA",
"y  c #0364F8",
"u  c #0267FB",
"i  c #0569FC",
"p  c #066AFD",
"a  c #076BFE",
"s  c #086DFE",
"d  c #096EFF",
"f  c #0B6FFF",
"g  c #0D6FF9",
"h  c #0D72FF",
"j  c #097DFF",
"k  c #196AEE",
"l  c #1074FF",
"z  c #1174FE",
"x  c #1276FF",
"c  c #1377FF",
"v  c #1578FF",
"b  c #177AFF",
"n  c #1E7BF3",
"m  c #1B7BF9",
"M  c #187BFF",
"N  c #1C7EFF",
"B  c #236FC0",
"V  c #2D75D0",
"C  c #3E7CC4",
"Z  c #1D80FF",
"A  c #1F81FF",
"S  c #3487D9",
"D  c #338ADD",
"F  c #3689D9",
"G  c #398CD9",
"H  c #3C8DD9",
"J  c #2183FF",
"K  c #2384FF",
"L  c #2486FF",
"P  c #2688FF",
"I  c #2B89F9",
"U  c #2889FF",
"Y  c #2A8BFF",
"T  c #2C8CFF",
"R  c #2E8EFF",
"E  c #3090FF",
"W  c #3291FF",
"Q  c #3493FF",
"!  c #3694FF",
"~  c #3896FF",
"^  c #3A98FF",
"/  c #3C99FF",
"(  c #3E9BFF",
")  c #4681C5",
"_  c #4183CA",
"`  c #4385CA",
"'  c #4486CA",
"]  c #4586CB",
"[  c #4D86C4",
"{  c #4E86C6",
"}  c #568BC2",
"|  c #568BC7",
" . c #5B8EC3",
".. c #5A8EC7",
"X. c #5E91C6",
"o. c #5D90C8",
"O. c #4A85E6",
"+. c #4B8CEF",
"@. c #4A8DF1",
"#. c #419DFF",
"$. c #439EFF",
"%. c #449EFF",
"&. c #45A0FF",
"*. c #47A2FF",
"=. c #49A4FF",
"-. c #4BA5FF",
";. c #4DA7FF",
":. c #52AAFF",
">. c #56AEFF",
",. c #5AB1FF",
"<. c #5EB4FF",
"1. c #6192DF",
"2. c #6F98D7",
"3. c #729ECA",
"4. c #6A99E4",
"5. c #6B9EED",
"6. c #7FA3D9",
"7. c #61B6FF",
"8. c #65B9FF",
"9. c #69BCFF",
"0. c #72A1ED",
"q. c #75A3E9",
"w. c #7BA7EA",
"e. c #7CB1E2",
"r. c #6DC0FF",
"t. c #71C3FF",
"y. c #73C4FF",
"u. c #77C7FF",
"i. c #7BCAFF",
"p. c #7FCDFF",
"a. c #86A8DB",
"s. c #82ACEB",
"d. c #86AFEC",
"f. c #87AFEC",
"g. c #85AFF2",
"h. c #89B0EC",
"j. c #8CB3ED",
"k. c #8FB5ED",
"l. c #91B3E5",
"z. c #91B6EE",
"x. c #92B7EE",
"c. c #94B8EE",
"v. c #95B9EE",
"b. c #96B9EF",
"n. c #97BAEF",
"m. c #99BBEF",
"M. c #9ABCEF",
"N. c #9BBDEF",
"B. c #9CBDEF",
"V. c #9FBFF0",
"C. c #83D0FF",
"Z. c #90C7FD",
"A. c #AFC8E7",
"S. c #A0C0F0",
"D. c #A1C1F0",
"F. c #A2C1F0",
"G. c #A4C3F1",
"H. c #A5C3F1",
"J. c #A7C4F1",
"K. c #A7C5F1",
"L. c #A8C5F1",
"P. c #AAC7F2",
"I. c #ABC7F2",
"U. c #ACC8F2",
"Y. c #ADC9F2",
"T. c #AEC9F2",
"R. c #AECAF2",
"E. c #B0CBF3",
"W. c #B1CBF3",
"Q. c #B2CCF3",
"!. c #B3CDF3",
"~. c #B4CDF3",
"^. c #B6CEF4",
"/. c #B7CFF4",
"(. c #BAD0EA",
"). c #B7D0F4",
"_. c #B9D1F4",
"`. c #BAD1F4",
"'. c #BCD3F5",
"]. c #BDD3F5",
"[. c #BFD4F5",
"{. c #B0EDFF",
"}. c #B2F0FF",
"|. c #B4F3FF",
" X c #BCFFFF",
".X c #C0D5F5",
"XX c #C2D7F5",
"oX c #C3D7F6",
"OX c #C4D8F6",
"+X c #C5D9F6",
"@X c #C6D9F6",
"#X c #C7DAF6",
"$X c #C8DBF6",
"%X c #CBDCF7",
"&X c #CBDDF7",
"*X c #CDDEF7",
"=X c #CEDEF7",
"-X c #D0DFF3",
";X c #C1FDFF",
":X c #CFFFFF",
">X c #D0E0F8",
",X c #D1E0F8",
"<X c #D3E2F8",
"1X c #D5E3F8",
"2X c #D6E4F8",
"3X c #D9E6F4",
"4X c #D9E6F5",
"5X c #D8E5F9",
"6X c #DAE7F9",
"7X c #DDE8FA",
"8X c #DDE9FA",
"9X c #DFEAFA",
"0X c #D8FFFF",
"qX c #DBFFFF",
"wX c #E2ECFA",
"eX c #E4EDFB",
"rX c #E6EFFB",
"tX c #E7FFFF",
"yX c #E9F0FC",
"uX c #EAF1FC",
"iX c #EDF3FC",
"pX c #EAFFFF",
"aX c #EDFEFF",
"sX c #EEFEFF",
"dX c #F1F5FD",
"fX c azure",
"gX c #F2FFFF",
"hX c #F6FFFF",
"jX c #F8FFFF",
"kX c #FAFFFF",
"lX c #FCFFFF",
"zX c gray100",
"xX c None",
/* pixels */
"xXxXxXxXxXxXxXxXxXxXxXxXxXxXxXxXxXxXxXxXxXxX",
"xXxXxXxXxXxXxXxXxX .e. .xXxXxXxXxXxXxXxXxXxX",
"xXxXxXxXj j xX+ , # iX- : + xXxXxXxXxXxXxXxX",
"xXxXxXxXj ! . @ 3.dXiXyX(.2 : + xXxXxXxXxXxX",
"xXxXxXxX! ! < 4XyXrXwX7X5X>XX.- o xXxXxXxXxX",
"xXxXxXxX! B 4XeXwX4X2X<X%X@X.X..& o xXxXxXxX",
"xXxXxX+ & -X7X5X>X=X%X.X].).!.U.[ % X xXxXxX",
"xXxX+ - A.1X>X%X@X.X`.~.U.L.F.B.v.3 $   xXxX",
"xXxX .} *X%XOX[.).Q.I.K.V.m.x.j.d.q.4  .xXxX",
"xX .1 oX[.).Q.U.K.D.N.v.k.f.s.w.O.8 5 7  .xX",
"xXxXo.^.!.L.D.U.l.a.6.2.1.0.g.q 9 0 w t     ",
"xXxX| A.Z.M.v.4.{.}.|.|. X0Xq t t p p h   xX",
"xXxX{ b.x.5.k 6 ;XqXtXtXfXhXt f h h v v   xX",
"xXxX) f.+.w t e :XfXkXzXzXzXf M N A K P   xX",
"xXxXC +.p f f g qXkXzXzXzXzXM U R W ! ~   xX",
"xXxXV z x v M m pXzXzXzXzXzXU ~ ( %.%.=.  xX",
"xXxXn N K L U I kXzXzXzXzXzX~ ;.:.>.,.<.  xX",
"xXxXU R W ! ~ %.zXzXzXzXzXzX;.7.8.9.r.r.  xX",
"xXxX^ #.%.=.;.Z.sXsXsXsXsXsX7.y.i.i.p.C.  xX",
"xXxXD S F H H  ._ ` ' ' ` .. . . . . . .  xX",
"xXxXxX                                    xX",
"xXxXxXxXxXxXxXxXxXxXxXxXxXxXxXxXxXxXxXxXxXxX"
};
