/* XPM */
static char * help_xpm[] = {
"18 18 130 2",
"  	c None",
". 	c #ADADAD",
"+ 	c #626262",
"@ 	c #A3A3A3",
"# 	c #4E4E4D",
"$ 	c #0D0B01",
"% 	c #1C1407",
"& 	c #1C160C",
"* 	c #1C1408",
"= 	c #0F0C01",
"- 	c #464644",
"; 	c #957512",
"> 	c #FFBA4C",
", 	c #FFCC7B",
"' 	c #FFC05C",
") 	c #A47F1C",
"! 	c #1A1602",
"~ 	c #575757",
"{ 	c #FFD99B",
"] 	c #FFECCB",
"^ 	c #FFECB0",
"/ 	c #EFDC82",
"( 	c #DFCB76",
"_ 	c #CDB993",
": 	c #BFAB8B",
"< 	c #D7C376",
"[ 	c #EDDA7E",
"} 	c #FFEC9A",
"| 	c #FFE6A7",
"1 	c #FFC363",
"2 	c #39280D",
"3 	c #FFFFE2",
"4 	c #FFFF75",
"5 	c #ACAC26",
"6 	c #8A8A06",
"7 	c #A5A55B",
"8 	c #4E4E4E",
"9 	c #4C4C01",
"0 	c #8E8E16",
"a 	c #F5F54B",
"b 	c #FFFF6B",
"c 	c #FFEF92",
"d 	c #FFCF82",
"e 	c #392C18",
"f 	c #FFFFBD",
"g 	c #F4F430",
"h 	c #616112",
"i 	c #48481C",
"j 	c #ECEC62",
"k 	c #A6A62C",
"l 	c #010101",
"m 	c #363609",
"n 	c #DBDB24",
"o 	c #F9F957",
"p 	c #67672E",
"q 	c #474747",
"r 	c #ECEC68",
"s 	c #DCDC00",
"t 	c #000000",
"u 	c #292900",
"v 	c #D0D024",
"w 	c #E1E163",
"x 	c #DADA67",
"y 	c #FBFB6B",
"z 	c #949400",
"A 	c #050505",
"B 	c #555526",
"C 	c #E2E224",
"D 	c #303022",
"E 	c #64644E",
"F 	c #D5D51A",
"G 	c #FCFC63",
"H 	c #7E7E6E",
"I 	c #B9B900",
"J 	c #D9D920",
"K 	c #484832",
"L 	c #858500",
"M 	c #8E8E53",
"N 	c #0C0C08",
"O 	c #0E0E0E",
"P 	c #1C1509",
"Q 	c #FFE58A",
"R 	c #C9C934",
"S 	c #606024",
"T 	c #7E7E4D",
"U 	c #FFFC73",
"V 	c #FFF582",
"W 	c #FFE58F",
"X 	c #FFC66B",
"Y 	c #392A13",
"Z 	c #140E02",
"` 	c #C38E21",
" .	c #FFCC61",
"..	c #FFF87C",
"+.	c #FFF28A",
"@.	c #FFE872",
"#.	c #FFE66B",
"$.	c #FFE078",
"%.	c #FFD692",
"&.	c #CB9527",
"*.	c #271D05",
"=.	c #343430",
"-.	c #352C04",
";.	c #A17E46",
">.	c #FFE8A3",
",.	c #FFD897",
"'.	c #FFBD54",
").	c #816232",
"!.	c #715830",
"~.	c #71511E",
"{.	c #3D3105",
"].	c #32322A",
"^.	c #878787",
"/.	c #333333",
"(.	c #55452B",
"_.	c #FFC568",
":.	c #8E6B34",
"<.	c #553B12",
"[.	c #2E2B26",
"}.	c #414141",
"|.	c #868686",
"1.	c #4C4C4C",
"2.	c #A77528",
"3.	c #39290F",
"4.	c #332D23",
"5.	c #464646",
"6.	c #090601",
"7.	c #100A02",
"8.	c #303030",
"9.	c #8D8D8D",
"  . + + + + + + + + + + + + + + @   ",
". # $ % & & & & & & & & & & * = - @ ",
"+ $ ; > , , , , , , , , , , ' ) ! ~ ",
"+ % > { ] ^ / ( _ : < [ } } | 1 2 ~ ",
"+ & , ] 3 4 5 6 7 8 9 0 a b c d e ~ ",
"+ & , ] f g h i j k l m n b c d e ~ ",
"+ & , ] f o p q r s t u v b c d e ~ ",
"+ & , ] f b w x y z A B C b c d e ~ ",
"+ & , ] f b b b b D E F G b c d e ~ ",
"+ & , } b b b b H I b b b b c d e ~ ",
"+ & , } b b b J K L b b b b c d e ~ ",
"+ & , } b b b M N O b b b b c d e ~ ",
"+ P 1 Q b b b R S T b b U V W X Y ~ ",
"+ Z `  .....+.@.#.#.#.#.$.%.X &.*.~ ",
"  =.-.;.>.>.,.'.).!.!.!.!.!.~.{.].^.",
"    /.(.d _.:.<.[.}.}.}.}.}.}.}.|.  ",
"    1.<.2.3.4.5.                    ",
"    1.6.7.8.9.                      "};
