/* XPM */
static char * left_xpm[] = {
"18 18 80 1",
" 	c None",
".	c #A6A6A6",
"+	c #A3A3A3",
"@	c #A2A2A2",
"#	c #696969",
"$	c #414141",
"%	c #868686",
"&	c #3B4D57",
"*	c #151F26",
"=	c #4C4C4C",
"-	c #ADADAD",
";	c #7DAECD",
">	c #364955",
",	c #838383",
"'	c #878787",
")	c #35454E",
"!	c #7EB1D0",
"~	c #85D0FF",
"{	c #244255",
"]	c #191919",
"^	c #212121",
"/	c #747474",
"(	c #B6B6B6",
"_	c #6A6A6A",
":	c #29363D",
"<	c #96C0D9",
"[	c #AADEFF",
"}	c #52BCFF",
"|	c #3D9DD9",
"1	c #62A0C6",
"2	c #6EA5C6",
"3	c #388FC6",
"4	c #061D2C",
"5	c #575757",
"6	c #6B6B6B",
"7	c #181F23",
"8	c #98CAE9",
"9	c #C0E7FF",
"0	c #53BCFF",
"a	c #48B8FF",
"b	c #4EBAFF",
"c	c #50BBFF",
"d	c #1DA1EA",
"e	c #012132",
"f	c #626262",
"g	c #000E15",
"h	c #0885C9",
"i	c #31AFFF",
"j	c #189FE8",
"k	c #002031",
"l	c #616161",
"m	c #08212D",
"n	c #0B7FC0",
"o	c #31ADFB",
"p	c #33B0FF",
"q	c #0C8FD7",
"r	c #0082C4",
"s	c #001D2B",
"t	c #606060",
"u	c #0F2E3E",
"v	c #0D7CBA",
"w	c #21A5F8",
"x	c #0C3955",
"y	c #111111",
"z	c #161616",
"A	c #A5A5A5",
"B	c #5F5F5F",
"C	c #123649",
"D	c #0E7AB8",
"E	c #08334D",
"F	c #7B7B7B",
"G	c #7E7E7E",
"H	c #A0A0A0",
"I	c #13394C",
"J	c #001722",
"K	c #9E9E9E",
"L	c #363636",
"M	c #7D7D7D",
"N	c #AEAEAE",
"O	c #9A9A9A",
"                  ",
"                  ",
"     .+           ",
"    @#$%          ",
"   @#&*=-         ",
"  .#&;>=,''''''''-",
" -#)!~{]^^^^^^^^^/",
"(_:<[}|12222222345",
"67890aabcccccccde5",
"fghiaaaaaaaaaaajk5",
"(lmnopqrrrrrrrrrs5",
" -tuvwxyzzzzzzzzz_",
"  ABCDE=FGGGGGGGG-",
"   HBIJ=-(((((((( ",
"    KBLMN         ",
"     HO           ",
"                  ",
"                  "};
