/* XPM */
static char * new_xpm[] = {
"18 18 122 2",
"  	c None",
". 	c #A3A3A3",
"+ 	c #626262",
"@ 	c #987736",
"# 	c #7E7E7E",
"$ 	c #B6B6B6",
"% 	c #52504C",
"& 	c #5B3D04",
"* 	c #EEAF31",
"= 	c #151A16",
"- 	c #141C1C",
"; 	c #171717",
"> 	c #030303",
", 	c #151515",
"' 	c #262626",
") 	c #7D7D7D",
"! 	c #AEAEAE",
"~ 	c #94763B",
"{ 	c #EAA91C",
"] 	c #FBE22E",
"^ 	c #C4D59A",
"/ 	c #BDF7F4",
"( 	c #CECECE",
"_ 	c #181818",
": 	c #C8C8C8",
"< 	c #676767",
"[ 	c #313131",
"} 	c #EAA100",
"| 	c #ECC600",
"1 	c #ECEC26",
"2 	c #E3C588",
"3 	c #1C1C1C",
"4 	c #F8F8F8",
"5 	c #C6C6C6",
"6 	c #656565",
"7 	c #363636",
"8 	c #7C7C7C",
"9 	c #EEC400",
"0 	c #FBD600",
"a 	c #F4F4B0",
"b 	c #F4F471",
"c 	c #ECEC00",
"d 	c #E4CAA2",
"e 	c #FFFFFF",
"f 	c #F6F6F6",
"g 	c #C5C5C5",
"h 	c #474747",
"i 	c #414141",
"j 	c #F4F432",
"k 	c #0D0D0D",
"l 	c #717171",
"m 	c #686868",
"n 	c #292929",
"o 	c #F2D397",
"p 	c #EFEFEF",
"q 	c #898989",
"r 	c #3D3D3D",
"s 	c #C1FCF9",
"t 	c #C2FFFF",
"u 	c #B7F4F4",
"v 	c #526C6C",
"w 	c #654504",
"x 	c #FFD207",
"y 	c #EECD8C",
"z 	c #E1E6E2",
"A 	c #F4FDFD",
"B 	c #F6FFFF",
"C 	c #F1FAFA",
"D 	c #E0E9E9",
"E 	c #646767",
"F 	c #4C4C4C",
"G 	c #553900",
"H 	c #FFD000",
"I 	c #CBE3AA",
"J 	c #B1FFFF",
"K 	c #4F7171",
"L 	c #543800",
"M 	c #FDCB05",
"N 	c #E2CC94",
"O 	c #DEE6E6",
"P 	c #EFF8F8",
"Q 	c #47330D",
"R 	c #E3A83B",
"S 	c #E6AB3E",
"T 	c #C4DAB4",
"U 	c #BCF9F9",
"V 	c #BDF9F9",
"W 	c #C0FDFD",
"X 	c #546F6F",
"Y 	c #3C4545",
"Z 	c #CBB88D",
"` 	c #D4C196",
" .	c #CAE4E4",
"..	c #D3EDED",
"+.	c #D4EEEE",
"@.	c #E5FFFF",
"#.	c #DEF8F8",
"$.	c #5E6A6A",
"%.	c #3C4A4A",
"&.	c #D5CACA",
"*.	c #DBD0D0",
"=.	c #BEE9E9",
"-.	c #C2EDED",
";.	c #C8F3F3",
">.	c #C9F4F4",
",.	c #CBF6F6",
"'.	c #D4FFFF",
").	c #5E7171",
"!.	c #D6C1C1",
"~.	c #DECACA",
"{.	c #C4DEDE",
"].	c #CBE5E5",
"^.	c #CCE6E6",
"/.	c #CDE7E7",
"(.	c #302828",
"_.	c #332B2B",
":.	c #2E2E2E",
"<.	c #303030",
"[.	c #333333",
"}.	c #9A9A9A",
"|.	c #575757",
"1.	c #909090",
"    . + @ @ + + + + + + # $         ",
"    % & * * & = - ; > , ' ) !       ",
"    ~ { ] ] { ^ / ( _ : < [ )       ",
"    } | 1 1 | } 2 ( 3 4 5 6 7 8     ",
"  9 0 1 a b c 0 9 d 3 e f g h i .   ",
"  9 0 1 b j c 0 9 d k l l m n i .   ",
"    } | c c | } o p q q q q r i .   ",
"    ~ { ] ] { ^ s t u u u u v i .   ",
"    % w x x y z A B B C D D E i .   ",
"    F G H H I J J J J J J J K i .   ",
"    F L M M N O A B B B P D E i .   ",
"    F Q R S T U V t t t t W X i .   ",
"    F Y Z `  ...+.@.@.@.@.#.$.i .   ",
"    F %.&.*.=.-.;.>.>.,.'.'.).i .   ",
"    F %.&.*.=.-.;.>.>.,.'.'.).i .   ",
"    F Y !.~.{.].^.^./.+.+.+.$.i .   ",
"    F k (._.:.<.<.<.[ [.[.[.; i .   ",
"    }.|.|.|.|.|.|.|.|.|.|.|.|.1.    "};
