/* XPM */
static char * next_xpm[] = {
"18 18 136 2",
"  	c None",
". 	c #A3A3A3",
"+ 	c #626262",
"@ 	c #7E7E7E",
"# 	c #B6B6B6",
"$ 	c #4C4C4C",
"% 	c #070909",
"& 	c #181818",
"* 	c #141C1C",
"= 	c #171717",
"- 	c #030303",
"; 	c #151515",
"> 	c #262626",
", 	c #7D7D7D",
"' 	c #AEAEAE",
") 	c #3B5050",
"! 	c #D4D3D3",
"~ 	c #D7D6D6",
"{ 	c #BBF8F8",
"] 	c #BDF9F9",
"^ 	c #CECECE",
"/ 	c #C8C8C8",
"( 	c #676767",
"_ 	c #313131",
": 	c #3C4545",
"< 	c #D6C1C1",
"[ 	c #DECACA",
"} 	c #CFE9E9",
"| 	c #D4EEEE",
"1 	c #1C1C1C",
"2 	c #F8F8F8",
"3 	c #C6C6C6",
"4 	c #656565",
"5 	c #363636",
"6 	c #7C7C7C",
"7 	c #3C4A4A",
"8 	c #D5CACA",
"9 	c #DBD0D0",
"0 	c #C5F0F0",
"a 	c #C9F4F4",
"b 	c #D2FEFE",
"c 	c #FFFFFF",
"d 	c #F6F6F6",
"e 	c #C5C5C5",
"f 	c #474747",
"g 	c #414141",
"h 	c #0D0D0D",
"i 	c #717171",
"j 	c #686868",
"k 	c #292929",
"l 	c #E3FDFD",
"m 	c #EFEFEF",
"n 	c #898989",
"o 	c #3D3D3D",
"p 	c #AAC4C4",
"q 	c #618B8B",
"r 	c #8DD3D3",
"s 	c #C2FEFE",
"t 	c #C2FFFF",
"u 	c #B7F4F4",
"v 	c #526C6C",
"w 	c #3C3F3F",
"x 	c #6B7070",
"y 	c #070E0E",
"z 	c #4E5858",
"A 	c #C8D1D1",
"B 	c #F4FDFD",
"C 	c #F6FFFF",
"D 	c #F1FAFA",
"E 	c #E0E9E9",
"F 	c #646767",
"G 	c #868686",
"H 	c #2D2D2D",
"I 	c #4A4A4A",
"J 	c #28668E",
"K 	c #183D55",
"L 	c #005959",
"M 	c #9DEFEF",
"N 	c #B1FFFF",
"O 	c #4F7171",
"P 	c #000000",
"Q 	c #0F171C",
"R 	c #08141C",
"S 	c #2C6F9A",
"T 	c #48B8FF",
"U 	c #16394F",
"V 	c #58595A",
"W 	c #E3EFEF",
"X 	c #EFF8F8",
"Y 	c #68C3F7",
"Z 	c #38B0F7",
"` 	c #41B4FC",
" .	c #3CB1F9",
"..	c #06141B",
"+.	c #187272",
"@.	c #C0FDFD",
"#.	c #546F6F",
"$.	c #006193",
"%.	c #2891CF",
"&.	c #0B72A8",
"*.	c #002D32",
"=.	c #849E9E",
"-.	c #E5FFFF",
";.	c #DEF8F8",
">.	c #5E6A6A",
",.	c #3C3C3C",
"'.	c #2E2E2E",
").	c #0F0F0F",
"!.	c #165D85",
"~.	c #0D6EA1",
"{.	c #263841",
"].	c #609999",
"^.	c #CBF6F6",
"/.	c #D4FFFF",
"(.	c #5E7171",
"_.	c #828282",
":.	c #595959",
"<.	c #2F3E3E",
"[.	c #4F6767",
"}.	c #002436",
"|.	c #00404B",
"1.	c #73A2A2",
"2.	c #C3EEEE",
"3.	c #8C9A9A",
"4.	c #799393",
"5.	c #BDDADA",
"6.	c #CCE6E6",
"7.	c #CDE7E7",
"8.	c #242424",
"9.	c #1E1E1E",
"0.	c #282828",
"a.	c #303030",
"b.	c #333333",
"c.	c #9A9A9A",
"d.	c #575757",
"e.	c #909090",
"    . + + + + + + + + + @ #         ",
"    $ % & & * * * = - ; > , '       ",
"    $ ) ! ~ { ] ] ^ & / ( _ ,       ",
"    $ : < [ } | | ^ 1 2 3 4 5 6     ",
"    $ 7 8 9 0 a b ^ 1 c d e f g .   ",
"    $ 7 8 9 0 a b ^ h i i j k g .   ",
"    $ : < [ } | l m n n n n o g .   ",
"    $ ) p q r ] s t u u u u v g .   ",
"    $ w x y z A B C C D E E F g .   ",
"G G j H I J K L M N N N N N O g .   ",
"P Q R R R S T U V W C C X E F g .   ",
"P Y Z Z Z ` T  ...+.t t t @.#.g .   ",
"P $.$.$.$.%.Z &.*.=.-.-.-.;.>.g .   ",
",.,.'.).& !.~.{.].a a ^././.(.g .   ",
"  _.:.<.[.}.|.1.2.a a ^././.(.g .   ",
"    $ : 3.:.4.5.6.6.7.| | | >.g .   ",
"    $ h 8.9.0.a.a.a._ b.b.b.= g .   ",
"    c.d.d.d.d.d.d.d.d.d.d.d.d.e.    "};
