/* XPM */
static char * open_xpm[] = {
"18 18 89 1",
" 	c None",
".	c #A7A7A7",
"+	c #777777",
"@	c #565656",
"#	c #757575",
"$	c #A6A6A6",
"%	c #B6B6B6",
"&	c #787878",
"*	c #494841",
"=	c #4B472F",
"-	c #555047",
";	c #464543",
">	c #747474",
",	c #9E9E9E",
"'	c #9C9C9C",
")	c #626262",
"!	c #333122",
"~	c #E7DC9E",
"{	c #EBDFA5",
"]	c #716425",
"^	c #393830",
"/	c #3D3D3D",
"(	c #8C8C8C",
"_	c #39352F",
":	c #EDE0AB",
"<	c #C9C058",
"[	c #CEC562",
"}	c #D1C96B",
"|	c #C5B646",
"1	c #847C4D",
"2	c #7C764F",
"3	c #6A5D1A",
"4	c #161200",
"5	c #EBDDA5",
"6	c #C3B848",
"7	c #C6BB4E",
"8	c #CEC563",
"9	c #D5CC75",
"0	c #D6CD77",
"a	c #BCA628",
"b	c #272000",
"c	c #9A9A9A",
"d	c #AC9A28",
"e	c #A18C18",
"f	c #B6A637",
"g	c #B7A01B",
"h	c #727272",
"i	c #0B0B0B",
"j	c #231E05",
"k	c #9D8512",
"l	c #988108",
"m	c #D5C280",
"n	c #F3E3BC",
"o	c #C8B469",
"p	c #AE9C28",
"q	c #B69F18",
"r	c #000000",
"s	c #FFF0D4",
"t	c #DED186",
"u	c #A38700",
"v	c #9C8200",
"w	c #211B00",
"x	c #BAA725",
"y	c #BBA92C",
"z	c #A08704",
"A	c #937A00",
"B	c #181818",
"C	c #7B6807",
"D	c #C2B642",
"E	c #A89620",
"F	c #7A7A7A",
"G	c #131103",
"H	c #B3A123",
"I	c #AE9A20",
"J	c #967D00",
"K	c #A2A2A2",
"L	c #35332B",
"M	c #695A09",
"N	c #BAA728",
"O	c #B49B12",
"P	c #8E7B00",
"Q	c #1C1900",
"R	c #110E00",
"S	c #4E4100",
"T	c #373300",
"U	c #0A0A00",
"V	c #9F9F9F",
"W	c #494949",
"X	c #959595",
"                  ",
"                  ",
" .+@@@@#$         ",
"%&*=---;>,'       ",
"%)!~{{{]^////////(",
"%)_:<[}|122222234)",
"%)_5678}9000000ab)",
"c)_566deeeeeeefgb)",
"hijkllmnnnnnnopqb)",
"rsssst6666666puvw)",
"rx66666666666yzAw)",
"BCD66666666666EAw)",
"FGH66666666666IJw)",
"KLMNNNNNNNNNNNOPQ)",
"%>RSSSSSSSSSSSSTU)",
" VWWWWWWWWWWWWWWWX",
"  $$$$$$$$$$$$$$$ ",
"                  "};
