/* XPM */
static char * paste_xpm[] = {
"18 18 109 2",
"  	c None",
". 	c #B6B6B6",
"+ 	c #3D3D3D",
"@ 	c #000000",
"# 	c #282828",
"$ 	c #9A9A9A",
"% 	c #575757",
"& 	c #353535",
"* 	c #ADADAD",
"= 	c #F7F7F7",
"- 	c #7B7B7B",
"; 	c #6B6B6B",
"> 	c #D6D6D6",
", 	c #ABABAB",
"' 	c #2B2B2B",
") 	c #909090",
"! 	c #4C4C4C",
"~ 	c #0E0900",
"{ 	c #170F00",
"] 	c #838383",
"^ 	c #C8C8C8",
"/ 	c #ACACAC",
"( 	c #A9A9A9",
"_ 	c #707070",
": 	c #120C00",
"< 	c #414141",
"[ 	c #A3A3A3",
"} 	c #3E2900",
"| 	c #7D5200",
"1 	c #756D5E",
"2 	c #8A8A8A",
"3 	c #5A5A5A",
"4 	c #515151",
"5 	c #433E36",
"6 	c #624000",
"7 	c #4D3300",
"8 	c #A96F00",
"9 	c #684400",
"0 	c #382400",
"a 	c #332100",
"b 	c #482F00",
"c 	c #835500",
"d 	c #432C00",
"e 	c #966200",
"f 	c #7F5200",
"g 	c #412A00",
"h 	c #3A2600",
"i 	c #1E1300",
"j 	c #464646",
"k 	c #A5A5A5",
"l 	c #1A1000",
"m 	c #549797",
"n 	c #AA7676",
"o 	c #76AAAA",
"p 	c #5C7F7F",
"q 	c #585858",
"r 	c #696969",
"s 	c #7A7A7A",
"t 	c #AEAEAE",
"u 	c #9AB0B0",
"v 	c #FFB1B1",
"w 	c #CADBDB",
"x 	c #DCEEEE",
"y 	c #ACB8B8",
"z 	c #D9D9D9",
"A 	c #292929",
"B 	c #6A6A6A",
"C 	c #82DBDB",
"D 	c #B5FAFA",
"E 	c #B7FDFD",
"F 	c #8FBEBE",
"G 	c #949494",
"H 	c #FDFDFD",
"I 	c #DDDDDD",
"J 	c #2E2E2E",
"K 	c #A2A2A2",
"L 	c #D1D1D1",
"M 	c #E9E9E9",
"N 	c #C6C6C6",
"O 	c #6E6E6E",
"P 	c #181818",
"Q 	c #B9FEFE",
"R 	c #BAFFFF",
"S 	c #293838",
"T 	c #E7F8F8",
"U 	c #EEFFFF",
"V 	c #333636",
"W 	c #8ACDCD",
"X 	c #BCF0F0",
"Y 	c #C4F8F8",
"Z 	c #C8FCFC",
"` 	c #CBFFFF",
" .	c #2C3838",
"..	c #92BFBF",
"+.	c #C3E5E5",
"@.	c #D0F3F3",
"#.	c #D8FAFA",
"$.	c #DCFFFF",
"%.	c #2F3737",
"&.	c #8C5B00",
"*.	c #150E00",
"=.	c #382500",
"-.	c #322100",
";.	c #0B0700",
">.	c #111111",
",.	c #1C3232",
"'.	c #392727",
").	c #273939",
"!.	c #090D0D",
"      . . . + @ @ @ @ # . . .       ",
"    $ % % & * = - ; > , ' % % )     ",
"  * ! ~ { ] ^ / ( ( ( ( _ : : < [   ",
"  * ! } | 1 2 3 4 4 4 4 5 6 7 < [   ",
"  * ! } 8 9 0 a a a a a b c d < [   ",
"  * ! } 8 e f g a a a a a h i j k   ",
"  * ! } 8 e f l m n o o p q r ! s t ",
"  * ! } 8 e f l u v w x y ) z ] A B ",
"  * ! } 8 e f l C v D E F G H I J % ",
"  * ! } 8 e f l K v L M N O O O P % ",
"  * ! } 8 e f l C v D E Q R R Q S % ",
"  * ! } 8 e f l u v w x T U U T V % ",
"  * ! } 8 e f l W v X Y Z ` ` Z  .% ",
"  * ! } 8 e f l ..v +.@.#.$.$.#.%.% ",
"  * ! } 8 e &.i ..v +.@.#.$.$.#.%.% ",
"  * ! *.=.-.-.;.W v X Y Z ` ` Z  .% ",
"    ) ! ! ! ! >.,.'.).).).).).).!.% ",
"      * * * * B % % % % % % % % % [ "};
