/* XPM */
static char * prev_xpm[] = {
"18 18 125 2",
"  	c None",
". 	c #878787",
"+ 	c #626262",
"@ 	c #9A9A9A",
"# 	c #2E2E2E",
"$ 	c #141414",
"% 	c #050505",
"& 	c #141C1C",
"* 	c #171919",
"= 	c #181818",
"- 	c #090D0D",
"; 	c #414141",
"> 	c #868686",
", 	c #363636",
"' 	c #5A5A5A",
") 	c #BFBFBF",
"! 	c #303030",
"~ 	c #B7B7B7",
"{ 	c #BDF9F9",
"] 	c #BCF8F8",
"^ 	c #CFDEDE",
"/ 	c #DDCCCC",
"( 	c #4F6A6A",
"_ 	c #393939",
": 	c #595959",
"< 	c #BEBEBE",
"[ 	c #F4F4F4",
"} 	c #D4EEEE",
"| 	c #D1EBEB",
"1 	c #D8CFCF",
"2 	c #DEBEBE",
"3 	c #505C5C",
"4 	c #ADADAD",
"5 	c #4C4C4C",
"6 	c #353535",
"7 	c #F3F3F3",
"8 	c #FFFFFF",
"9 	c #D4FFFF",
"0 	c #C9F4F4",
"a 	c #C6F2F2",
"b 	c #D4D6D6",
"c 	c #DDC5C5",
"d 	c #506363",
"e 	c #1F1F1F",
"f 	c #656565",
"g 	c #717171",
"h 	c #191919",
"i 	c #898989",
"j 	c #E3E3E3",
"k 	c #E5FFFF",
"l 	c #3D5151",
"m 	c #B7F4F4",
"n 	c #C1FEFE",
"o 	c #C2FFFF",
"p 	c #9DE0E0",
"q 	c #548A8A",
"r 	c #A9BABA",
"s 	c #4B4E4E",
"t 	c #E0E9E9",
"u 	c #EFF8F8",
"v 	c #F6FFFF",
"w 	c #D4DDDD",
"x 	c #5B6565",
"y 	c #050D0D",
"z 	c #595D5D",
"A 	c #515454",
"B 	c #3B5555",
"C 	c #B1FFFF",
"D 	c #006666",
"E 	c #102939",
"F 	c #307BAA",
"G 	c #3C3C3C",
"H 	c #ECF5F5",
"I 	c #E5F1F1",
"J 	c #0F2736",
"K 	c #48B8FF",
"L 	c #3381B3",
"M 	c #08141C",
"N 	c #0E171C",
"O 	c #020303",
"P 	c #3F5353",
"Q 	c #BFFCFC",
"R 	c #2B8282",
"S 	c #000000",
"T 	c #3AB0F8",
"U 	c #43B5FC",
"V 	c #38B0F7",
"W 	c #62C0F7",
"X 	c #0C161B",
"Y 	c #474F4F",
"Z 	c #DCF6F6",
"` 	c #8FA9A9",
" .	c #002626",
"..	c #056A9D",
"+.	c #35AEF6",
"@.	c #309BDB",
"#.	c #006193",
"$.	c #000B10",
"%.	c #475555",
"&.	c #CCF8F8",
"*.	c #66A6A6",
"=.	c #2B3439",
"-.	c #096494",
";.	c #1B6FA0",
">.	c #131313",
",.	c #282828",
"'.	c #83B0B0",
").	c #004047",
"!.	c #002B41",
"~.	c #3F5252",
"{.	c #7E7E7E",
"].	c #CEE8E8",
"^.	c #CCE6E6",
"/.	c #C5E0E0",
"(.	c #7F9C9C",
"_.	c #828D8D",
":.	c #111111",
"<.	c #333333",
"[.	c #313131",
"}.	c #2A2A2A",
"|.	c #1E1E1E",
"1.	c #232323",
"2.	c #121212",
"3.	c #575757",
"4.	c #909090",
"          . + + + + + + + + + @     ",
"        . # $ % $ & & & * = - ;     ",
"      > , ' ) ! ~ { { ] ^ / ( ;     ",
"    > _ : < [ _ ~ } } | 1 2 3 ;     ",
"  4 5 6 < 7 8 _ ~ 9 0 a b c d ;     ",
"  4 5 e f g g h ~ 9 0 a b c d ;     ",
"  4 5 # i i i i j k } | 1 2 3 ;     ",
"  4 5 l m m m m n o { p q r ( ;     ",
"  4 5 s t t u v v v w x y z A ;     ",
"  4 5 B C C C C C C D E F G G : > > ",
"  4 5 s t H v v I + J K L M M M N O ",
"  4 5 P Q o o o R S T K U V V V W X ",
"  4 5 Y Z k k k `  ...+.@.#.#.#.#.$.",
"  4 5 %.9 9 &.0 0 *.=.-.;.>.>.,.G G ",
"  4 5 %.9 9 &.0 0 0 '.).!.~.~.5 {.  ",
"  4 5 Y } } } ].^.^./.(.: _.3 ;     ",
"  4 5 :.<.<.<.[.! ! ! }.|.1.2.;     ",
"    @ 3.3.3.3.3.3.3.3.3.3.3.3.4.    "};
