/* XPM */
static char * print_xpm[] = {
"18 18 160 2",
"  	c None",
". 	c #B6B6B6",
"+ 	c #7E7E7E",
"@ 	c #161616",
"# 	c #000000",
"$ 	c #212121",
"% 	c #999999",
"& 	c #ADADAD",
"* 	c #3A3A3A",
"= 	c #828C8C",
"- 	c #F5C5B1",
"; 	c #C7D3D3",
"> 	c #DCE9E9",
", 	c #E1EEEE",
"' 	c #F2FFFF",
") 	c #515555",
"! 	c #4D4D4D",
"~ 	c #7B7B7B",
"{ 	c #333333",
"] 	c #8AC5C1",
"^ 	c #ECCDBD",
"/ 	c #A2F9F9",
"( 	c #A3FBFB",
"_ 	c #A7FFFF",
": 	c #88E0E0",
"< 	c #2C4A4A",
"[ 	c #646464",
"} 	c #AEAEAE",
"| 	c #A5A5A5",
"1 	c #9A9A9A",
"2 	c #444444",
"3 	c #4C7C7C",
"4 	c #E0C4B3",
"5 	c #96D1CF",
"6 	c #99E3E3",
"7 	c #9DE6E6",
"8 	c #BAF7F7",
"9 	c #D9FFFF",
"0 	c #617171",
"a 	c #A7A7A7",
"b 	c #737373",
"c 	c #363636",
"d 	c #424242",
"e 	c #65A69F",
"f 	c #CAC8BC",
"g 	c #66CFCE",
"h 	c #56D0D0",
"i 	c #5DD7D7",
"j 	c #66E0E0",
"k 	c #81E7E7",
"l 	c #88C6C6",
"m 	c #35513F",
"n 	c #1D1D13",
"o 	c #555555",
"p 	c #919191",
"q 	c #2F2F2F",
"r 	c #1E1E1E",
"s 	c #2A6363",
"t 	c #C3B6A4",
"u 	c #7CBCB6",
"v 	c #56BDBD",
"w 	c #397D7D",
"x 	c #292900",
"y 	c #4F4600",
"z 	c #524400",
"A 	c #35332B",
"B 	c #747474",
"C 	c #282828",
"D 	c #6E695E",
"E 	c #847C54",
"F 	c #315422",
"G 	c #6A6C34",
"H 	c #446E3A",
"I 	c #316F3E",
"J 	c #317B49",
"K 	c #315A29",
"L 	c #6C681B",
"M 	c #C6BE81",
"N 	c #BDA726",
"O 	c #141100",
"P 	c #757575",
"Q 	c #1C1C1C",
"R 	c #6B675F",
"S 	c #D4C48A",
"T 	c #BEB24E",
"U 	c #A8A038",
"V 	c #D1CC90",
"W 	c #DCCE6D",
"X 	c #BBA00D",
"Y 	c #626262",
"Z 	c #1A1A1A",
"` 	c #F1F1F0",
" .	c #FCFAF2",
"..	c #F8F7EB",
"+.	c #DFD278",
"@.	c #E5CE72",
"#.	c #BEA223",
"$.	c #131000",
"%.	c #1C1914",
"&.	c #F8E2B1",
"*.	c #F2DFA9",
"=.	c #DFD48E",
"-.	c #D3C14F",
";.	c #E1C962",
">.	c #E7D99A",
",.	c #BAA120",
"'.	c #F7E1AF",
").	c #E8D894",
"!.	c #D1C96B",
"~.	c #D2CA6E",
"{.	c #DED38B",
"].	c #D3C980",
"^.	c #6E6C0C",
"/.	c #8F8A2F",
"(.	c #DBCF83",
"_.	c #B89F1C",
":.	c #1B1812",
"<.	c #E9D895",
"[.	c #D9D080",
"}.	c #DCD286",
"|.	c #D2C475",
"1.	c #B8A544",
"2.	c #CEB93D",
"3.	c #BEA92F",
"4.	c #AB9004",
"5.	c #151308",
"6.	c #BCAF47",
"7.	c #C6B65F",
"8.	c #BEAA35",
"9.	c #B59D0D",
"0.	c #BFB038",
"a.	c #786810",
"b.	c #1A180F",
"c.	c #0E0C05",
"d.	c #877829",
"e.	c #A89620",
"f.	c #A99315",
"g.	c #9F8600",
"h.	c #AE9C28",
"i.	c #898133",
"j.	c #29281A",
"k.	c #636363",
"l.	c #353535",
"m.	c #414035",
"n.	c #9F9644",
"o.	c #C4B020",
"p.	c #BBA515",
"q.	c #AB9512",
"r.	c #7D7324",
"s.	c #2F2E1D",
"t.	c #666666",
"u.	c #A9A9A9",
"v.	c #909090",
"w.	c #2C2916",
"x.	c #423900",
"y.	c #3C3300",
"z.	c #38320B",
"A.	c #676767",
"B.	c #4C4C4C",
"C.	c #777777",
"          . + @ # # # # # # # $ %   ",
"          & * = - ; > , ' ' ' ) ! & ",
"        . ~ { ] ^ / / ( _ _ : < [ } ",
"      | 1 2 3 4 5 6 6 7 8 9 0 $ %   ",
"    a b c d e f g h i j k l m n o p ",
"  & b q r s t u v v i j j w x y z A ",
". B C D E F G H I I J J J K L M N O ",
"P Q R S T U U U U U U U U U V W X O ",
"Y Z `  .....................+.@.#.$.",
"Y %.&.&.&.&.&.&.&.&.&.*.=.-.;.>.,.$.",
"Y %.'.).!.!.!.~.{.=.].^./.-.-.(._.$.",
"Y :.<.!.!.!.!.[.}.=.=.|.1.-.2.3.4.$.",
"Y 5.6.6.6.6.6.6.6.7.7.7.7.8.9.0.a.b.",
"Y c.d.e.e.e.e.e.e.e.e.e.f.g.h.i.j.k.",
"p l.m.n.o.o.o.o.o.o.o.o.p.q.r.s.t.u.",
"  v.* w.x.x.x.x.x.x.x.x.y.z.s.A.    ",
"    v.B.B.B.B.B.B.B.B.B.B.B.C.      ",
"      & & & & & & & & & & & }       "};
