/* XPM */
static char * qtlogo_xpm[] = {
"18 18 60 1",
" 	c None",
".	c #A2C511",
"+	c #9BBC10",
"@	c #758E0C",
"#	c #5B6F0A",
"$	c #5C700A",
"%	c #A0C311",
"&	c #5E730A",
"*	c #111502",
"=	c #000000",
"-	c #010100",
";	c #425007",
">	c #020200",
",	c #101302",
"'	c #303B05",
")	c #313C05",
"!	c #000100",
"~	c #425107",
"{	c #050601",
"]	c #566909",
"^	c #9CBE10",
"/	c #9BBD10",
"(	c #576A09",
"_	c #050701",
":	c #020300",
"<	c #5D710A",
"[	c #121602",
"}	c #556809",
"|	c #84A10E",
"1	c #3A4706",
"2	c #556709",
"3	c #111402",
"4	c #101402",
"5	c #9DBE10",
"6	c #86A30E",
"7	c #384406",
"8	c #758F0C",
"9	c #5B6E0A",
"0	c #86A20E",
"a	c #85A20E",
"b	c #121502",
"c	c #748D0C",
"d	c #9CBD10",
"e	c #394606",
"f	c #040400",
"g	c #0F1202",
"h	c #809B0D",
"i	c #0F1302",
"j	c #050600",
"k	c #7F9B0D",
"l	c #526409",
"m	c #88A50E",
"n	c #A0C211",
"o	c #5D720A",
"p	c #010200",
"q	c #212803",
"r	c #93B20F",
"s	c #768F0C",
"t	c #5C6F0A",
"u	c #88A60E",
"..................",
"..................",
"......+@#$@+......",
"....%&*===-*&%....",
"...%;>=,')*>!~%...",
"...&>{]^../(_:<...",
"..+[-}...|1+2=3+..",
"..@=45..63>7^4-8..",
"..9='..6*-,0.)-$..",
"..$=).ab-=,a.)=$..",
"..c-bdef3g=,h,>@..",
"../[:(+76ai-{=3+..",
"...&!j2/..k{=>l...",
"...%~:=*')g=>=3m..",
"....no3->=p4l4qr..",
"......+s$t8+.ur...",
"..................",
".................."};
