/* XPM */
static char * redo_xpm[] = {
"18 18 93 2",
"  	c None",
". 	c #909090",
"+ 	c #3E3E3E",
"@ 	c #525252",
"# 	c #9A9A9A",
"$ 	c #B6B6B6",
"% 	c #575757",
"& 	c #001200",
"* 	c #0E450E",
"= 	c #979797",
"- 	c #A3A3A3",
"; 	c #A0A0A0",
"> 	c #8D8D8D",
", 	c #878787",
"' 	c #002708",
") 	c #009817",
"! 	c #0F480F",
"~ 	c #6B6B6B",
"{ 	c #2F2F2F",
"] 	c #242424",
"^ 	c #212121",
"/ 	c #1D1D1D",
"( 	c #00260E",
"_ 	c #00AD36",
": 	c #122712",
"< 	c #005611",
"[ 	c #007E2B",
"} 	c #008C10",
"| 	c #009000",
"1 	c #00960E",
"2 	c #00A63A",
"3 	c #00A332",
"4 	c #009D15",
"5 	c #0B3B0B",
"6 	c #505050",
"7 	c #AAAAAA",
"8 	c #727272",
"9 	c #0B1A0B",
"0 	c #005F0F",
"a 	c #00922E",
"b 	c #009732",
"c 	c #00992E",
"d 	c #009A2C",
"e 	c #009A2D",
"f 	c #009832",
"g 	c #00A434",
"h 	c #00A712",
"i 	c #062B06",
"j 	c #4D4D4D",
"k 	c #9E9E9E",
"l 	c #000900",
"m 	c #00600B",
"n 	c #009631",
"o 	c #006710",
"p 	c #6C6C6C",
"q 	c #001504",
"r 	c #007E29",
"s 	c #004700",
"t 	c #00590B",
"u 	c #00932F",
"v 	c #006713",
"w 	c #071F07",
"x 	c #565656",
"y 	c #ADADAD",
"z 	c #000000",
"A 	c #005805",
"B 	c #009330",
"C 	c #006215",
"D 	c #172C17",
"E 	c #232323",
"F 	c #131313",
"G 	c #00210B",
"H 	c #00912D",
"I 	c #006615",
"J 	c #0C280C",
"K 	c #555555",
"L 	c #A4A4A4",
"M 	c #00862C",
"N 	c #003310",
"O 	c #696969",
"P 	c #001C07",
"Q 	c #006616",
"R 	c #0F2C0F",
"S 	c #000A00",
"T 	c #545454",
"U 	c #363636",
"V 	c #002702",
"W 	c #004316",
"X 	c #003C13",
"Y 	c #001707",
"Z 	c #8A8A8A",
"` 	c #414141",
" .	c #7F7F7F",
"                                    ",
"                                    ",
"                                    ",
"                    . + @ #         ",
"                  $ % & * @ =       ",
"      - ; > , , , , % ' ) ! @ #     ",
"    = ~ { ] ^ ^ ^ ^ / ( _ ) * @ ;   ",
"  # ~ : < [ } | | | | 1 2 3 4 5 6 7 ",
"$ 8 9 0 a b c d d d d e f b g h i j ",
"k l m n n n n n n n n n n n n o & % ",
"p q r n n a 0 s s s s t n u v w x y ",
"z A n n B C D E E E F G H I J K L   ",
"z A n n M N O k k k % P Q R K k     ",
"z A n n M N O       % S R T #       ",
"U V W W X Y O       , U K #         ",
"Z ` ` ` ` `  .                      ",
"                                    ",
"                                    "};
