/* XPM */
static char * replace_xpm[] = {
"18 18 152 2",
"  	c None",
". 	c #9A9A9A",
"+ 	c #6F6F6F",
"@ 	c #626262",
"# 	c #777777",
"$ 	c #AAAAAA",
"% 	c #7F7F7F",
"& 	c #545454",
"* 	c #343434",
"= 	c #161616",
"- 	c #181818",
"; 	c #151515",
"> 	c #484848",
", 	c #575757",
"' 	c #8A8A8A",
") 	c #939393",
"! 	c #868686",
"~ 	c #363636",
"{ 	c #9E9EA3",
"] 	c #CCCCD6",
"^ 	c #D9D9E2",
"/ 	c #C3C3CC",
"( 	c #8C8C8D",
"_ 	c #282828",
": 	c #424242",
"< 	c #898989",
"[ 	c #333333",
"} 	c #352727",
"| 	c #332B2B",
"1 	c #6E6E6E",
"2 	c #C9C9CE",
"3 	c #DDDDF1",
"4 	c #D4D4FF",
"5 	c #C8C8FF",
"6 	c #D1D1FF",
"7 	c #D8D8E9",
"8 	c #C2C2C2",
"9 	c #2B2B2B",
"0 	c #646464",
"a 	c #676767",
"b 	c #3D3636",
"c 	c #B37575",
"d 	c #8E5353",
"e 	c #6D6D6D",
"f 	c #F2F2FF",
"g 	c #D9D4FF",
"h 	c #BBB1FF",
"i 	c #C2C0FF",
"j 	c #D2D2FF",
"k 	c #D7D7EA",
"l 	c #3D3D3D",
"m 	c #171717",
"n 	c #715757",
"o 	c #FFBABA",
"p 	c #FF9A9A",
"q 	c #914545",
"r 	c #2B2424",
"s 	c #D2C0FF",
"t 	c #C7B1FF",
"u 	c #BFB1FF",
"v 	c #C0BFFF",
"w 	c #6A6A6A",
"x 	c #2E2A15",
"y 	c #544A0B",
"z 	c #463636",
"A 	c #C07A7A",
"B 	c #FF8686",
"C 	c #914040",
"D 	c #B3B1FF",
"E 	c #70707E",
"F 	c #211F12",
"G 	c #9B8B1F",
"H 	c #DCD665",
"I 	c #7C7C1E",
"J 	c #422D2D",
"K 	c #552828",
"L 	c #332828",
"M 	c #BAB1FF",
"N 	c #62617A",
"O 	c #0E0E0E",
"P 	c #A39012",
"Q 	c #F5F08B",
"R 	c #FEE13B",
"S 	c #EC8B4D",
"T 	c #5E2E1F",
"U 	c #202020",
"V 	c #0E0E0F",
"W 	c #AF9700",
"X 	c #F9F7AA",
"Y 	c #FEE827",
"Z 	c #FF8F59",
"` 	c #9A472E",
" .	c #2B2422",
"..	c #FFFFD4",
"+.	c #FEF20C",
"@.	c #FF8963",
"#.	c #AA4D30",
"$.	c #1C1C1C",
"%.	c #FC8863",
"&.	c #B25133",
"*.	c #383838",
"=.	c #22211E",
"-.	c #504B3A",
";.	c #282415",
">.	c #343017",
",.	c #958727",
"'.	c #F2EC76",
").	c #524C3A",
"!.	c #D1B962",
"~.	c #7A6921",
"{.	c #2D2917",
"].	c #323232",
"^.	c #3D360C",
"/.	c #CAC44E",
"(.	c #FEDD47",
"_.	c #FF9352",
":.	c #2B2715",
"<.	c #897621",
"[.	c #CDB55A",
"}.	c #7A6923",
"|.	c #A3A39F",
"1.	c #54512B",
"2.	c #8B8069",
"3.	c #5B564E",
"4.	c #5E5E1F",
"5.	c #DB8646",
"6.	c #91442C",
"7.	c #312D17",
"8.	c #877523",
"9.	c #939389",
"0.	c #7E7A2D",
"a.	c #FCEAC4",
"b.	c #D5C39D",
"c.	c #554E40",
"d.	c #402017",
"e.	c #332925",
"f.	c #625D1A",
"g.	c #1A1A12",
"h.	c #747469",
"i.	c #847F29",
"j.	c #F9E4B6",
"k.	c #F8E2B1",
"l.	c #6E644F",
"m.	c #655F1A",
"n.	c #4C4B09",
"o.	c #32322B",
"p.	c #636362",
"q.	c #222104",
"r.	c #737014",
"s.	c #696714",
"t.	c #484727",
"u.	c #808080",
"      . + @ @ @ # $                 ",
"    % & * = - ; > , '       ) !     ",
"  % ~ > { ] ^ / ( _ : <   [ } | 1   ",
". & > 2 3 4 5 6 7 8 9 0 a b c d | e ",
"+ * { 3 f g h i j k ! l m n o p q r ",
"@ = ] 4 g s t u v 4 w x y z A B C r ",
"@ - ^ 5 h t t t D E F G H I J K L   ",
"@ ; / 6 i u t M N O P Q R S T U     ",
"# > ( 7 j v D N V W X Y Z `  .      ",
"$ , _ 8 k 4 E O W ..+.@.#.$.        ",
"  ' : 9 ! w F P X +.%.&.m *.        ",
"    < 0 l x G Q Y @.&.=.-.;.[       ",
"      a >.,.'.R Z #.m ).!.~.{.].    ",
"    [ m ^./.(._.` $.*.:.<.[.}.{.[   ",
"  |.1.2.3.4.5.6. .    [ 7.8.[.~.;.*.",
"  9.0.a.b.c.d.e.        ].7.<.!.f.g.",
"  h.i.j.k.l.U             [ :.m.n.o.",
"  p.q.r.s.t.                *.g.o.u."};
