/* XPM */
static char * replace2_xpm[] = {
"18 18 115 2",
"  	c None",
". 	c #424242",
"+ 	c #545454",
"@ 	c #4C4C4C",
"# 	c #454545",
"$ 	c #616161",
"% 	c #4A4A4A",
"& 	c #000204",
"* 	c #001621",
"= 	c #000A0F",
"- 	c #000000",
"; 	c #00111A",
"> 	c #00131E",
", 	c #0D0D0D",
"' 	c #3B3B3B",
") 	c #00070B",
"! 	c #00496F",
"~ 	c #00679E",
"{ 	c #0072AD",
"] 	c #004569",
"^ 	c #000B11",
"/ 	c #00334E",
"( 	c #005E90",
"_ 	c #0069A0",
": 	c #001927",
"< 	c #101010",
"[ 	c #373737",
"} 	c #1D1D1D",
"| 	c #000C13",
"1 	c #004E77",
"2 	c #0086CB",
"3 	c #007DBE",
"4 	c #004164",
"5 	c #00304A",
"6 	c #007DBD",
"7 	c #008ED6",
"8 	c #001D2C",
"9 	c #121212",
"0 	c #353535",
"a 	c #434343",
"b 	c #202020",
"c 	c #000F16",
"d 	c #004D76",
"e 	c #0080C2",
"f 	c #0077B5",
"g 	c #004366",
"h 	c #000609",
"i 	c #002C43",
"j 	c #0079B8",
"k 	c #0082C5",
"l 	c #005C8D",
"m 	c #001E2E",
"n 	c #212121",
"o 	c #00476C",
"p 	c #002D45",
"q 	c #008DD4",
"r 	c #005079",
"s 	c #0086CA",
"t 	c #004C75",
"u 	c #000405",
"v 	c #003855",
"w 	c #0078B6",
"x 	c #767676",
"y 	c #00253B",
"z 	c #005D8E",
"A 	c #008BD2",
"B 	c #004D77",
"C 	c #000D15",
"D 	c #005888",
"E 	c #008FD8",
"F 	c #006295",
"G 	c #002135",
"H 	c #005786",
"I 	c #007AB9",
"J 	c #005785",
"K 	c #000B12",
"L 	c #004267",
"M 	c #0085C9",
"N 	c #006AA2",
"O 	c #252525",
"P 	c #000102",
"Q 	c #001F30",
"R 	c #0075B1",
"S 	c #00659B",
"T 	c #060606",
"U 	c #262626",
"V 	c #00466B",
"W 	c #00517B",
"X 	c #0074B0",
"Y 	c #006396",
"Z 	c #002234",
"` 	c #0B0B0B",
" .	c #007CBC",
"..	c #004C74",
"+.	c #002132",
"@.	c #006EA7",
"#.	c #002438",
"$.	c #0E0E0E",
"%.	c #0073AE",
"&.	c #004970",
"*.	c #00273B",
"=.	c #006DA6",
"-.	c #0079B7",
";.	c #0F0F0F",
">.	c #323232",
",.	c #004062",
"'.	c #00669B",
").	c #00486F",
"!.	c #002A41",
"~.	c #005D8F",
"{.	c #000406",
"].	c #3A3A3A",
"^.	c #494949",
"/.	c #3D3D3D",
"(.	c #555555",
"                                    ",
"  . . . . + @ . . . # $             ",
"% & * * * = - ; * * > , '           ",
"% ) ! ~ { ] ^ / ( { _ : < [         ",
"% } | 1 2 3 4 = 5 6 7 ( 8 9 0       ",
"  a b c d e f g h i j k l m 9 [     ",
"      n c 1 k f o - p q f l 8 < '   ",
"        b | r s f t u v 2 w ( : , x ",
"        a } y z A f B C D E k F > , ",
"          n G H q I J K L f M N * - ",
"        O h ! 2 I J P Q R M S 8 T x ",
"      U = V k I W - Q X M Y Z ` '   ",
"    U ^ 4  .I ..) +.@.M F #.$.0     ",
"  O = 4 %.X &.| *.=.-.Y #.;.>.      ",
"% h ,.'.=.).c !.~.=.S Z $.>.        ",
"% {.+.+.+.c - : +.+.8 ` 0           ",
"  ].].].].^.a ].].]./.(.            ",
"                                    "};
