/* XPM */
static char * right_xpm[] = {
"18 18 80 1",
" 	c None",
".	c #9A9A9A",
"+	c #A0A0A0",
"@	c #AEAEAE",
"#	c #7D7D7D",
"$	c #363636",
"%	c #5F5F5F",
"&	c #9E9E9E",
"*	c #B6B6B6",
"=	c #ADADAD",
"-	c #4C4C4C",
";	c #001722",
">	c #13394C",
",	c #7E7E7E",
"'	c #7B7B7B",
")	c #08334D",
"!	c #0E7AB8",
"~	c #123649",
"{	c #A5A5A5",
"]	c #6A6A6A",
"^	c #161616",
"/	c #111111",
"(	c #0C3955",
"_	c #21A5F8",
":	c #0D7CBA",
"<	c #0F2E3E",
"[	c #606060",
"}	c #575757",
"|	c #001D2B",
"1	c #0082C4",
"2	c #0C8FD7",
"3	c #33B0FF",
"4	c #31ADFB",
"5	c #0B7FC0",
"6	c #08212D",
"7	c #616161",
"8	c #002031",
"9	c #189FE8",
"0	c #48B8FF",
"a	c #31AFFF",
"b	c #0885C9",
"c	c #000E15",
"d	c #626262",
"e	c #012132",
"f	c #1DA1EA",
"g	c #50BBFF",
"h	c #4EBAFF",
"i	c #53BCFF",
"j	c #C0E7FF",
"k	c #98CAE9",
"l	c #181F23",
"m	c #6B6B6B",
"n	c #061D2C",
"o	c #388FC6",
"p	c #6EA5C6",
"q	c #62A0C6",
"r	c #3D9DD9",
"s	c #52BCFF",
"t	c #AADEFF",
"u	c #96C0D9",
"v	c #29363D",
"w	c #747474",
"x	c #212121",
"y	c #191919",
"z	c #244255",
"A	c #85D0FF",
"B	c #7EB1D0",
"C	c #35454E",
"D	c #696969",
"E	c #878787",
"F	c #838383",
"G	c #364955",
"H	c #7DAECD",
"I	c #3B4D57",
"J	c #A6A6A6",
"K	c #151F26",
"L	c #A2A2A2",
"M	c #868686",
"N	c #414141",
"O	c #A3A3A3",
"                  ",
"                  ",
"           .+     ",
"         @#$%&    ",
" ********=-;>%+   ",
"=,,,,,,,,'-)!~%{  ",
"]^^^^^^^^^/(_:<[= ",
"}|111111111234567*",
"}8900000000000abcd",
"}efgggggggh00ijklm",
"}nopppppppqrstuv]*",
"wxxxxxxxxxyzABCD= ",
"=EEEEEEEEF-GHIDJ  ",
"         =-KIDL   ",
"          MNDL    ",
"           OJ     ",
"                  ",
"                  "};
