/* XPM */
static char * save_xpm[] = {
"18 18 78 1",
" 	c None",
".	c #6E6E6E",
"+	c #4A4A4A",
"@	c #525252",
"#	c #565656",
"$	c #6A6A6A",
"%	c #4B4B4B",
"&	c #414141",
"*	c #0F0F0F",
"=	c #0C0C0C",
"-	c #3B3B3B",
";	c #7F7F7F",
">	c #868686",
",	c #898989",
"'	c #484848",
")	c #0E0E0E",
"!	c #1B1B1B",
"~	c #424242",
"{	c #8F8F8F",
"]	c #8A8A8A",
"^	c #9A9A9A",
"/	c #909090",
"(	c #9D9D9D",
"_	c #929292",
":	c #979797",
"<	c #7B7B7B",
"[	c #828282",
"}	c #8E8E8E",
"|	c #A1A1A1",
"1	c #A3A3A3",
"2	c #AEAEAE",
"3	c #B2B2B2",
"4	c #B4B4B4",
"5	c #959595",
"6	c #7C7C7C",
"7	c #7A7A7A",
"8	c #797979",
"9	c #727272",
"0	c #696969",
"a	c #666666",
"b	c #656565",
"c	c #5F5F5F",
"d	c #616161",
"e	c #EFEFEF",
"f	c #CBCBCB",
"g	c #B9B9B9",
"h	c #D9D9D9",
"i	c #D5D5D5",
"j	c #D6D6D6",
"k	c #A9A9A9",
"l	c #464646",
"m	c #5B5B5B",
"n	c #838383",
"o	c #D4D4D4",
"p	c #D0D0D0",
"q	c #C6C6C6",
"r	c #CCCCCC",
"s	c #B7B7B7",
"t	c #A5A5A5",
"u	c #CECECE",
"v	c #C9C9C9",
"w	c #0A0A0A",
"x	c #595959",
"y	c #BABABA",
"z	c #C4C4C4",
"A	c #C5C5C5",
"B	c #353535",
"C	c #111111",
"D	c #1D1D1D",
"E	c #2C2C2C",
"F	c #262626",
"G	c #2A2A2A",
"H	c #2B2B2B",
"I	c #292929",
"J	c #101010",
"K	c #141414",
"L	c #1E1E1E",
"M	c #060606",
".+@............#+$",
"+%&*==========*-%+",
"+&;>..........,>''",
"+);>..........,>!~",
"+);>..........{]!~",
"+);>..........^/!~",
"+);>..........(_!~",
"+);>..........:{!~",
"+)<[}}}}|1223456!~",
"+)77777777777777!~",
"+)890abbbba0cd9<!~",
"+)9}efghhijklmn>!~",
"+)9]3mlopqrslmn>!~",
"+)9[tmlouvvslmn>!~",
"+)9[tmlouvvslmn>!~",
"+wx[y/,zzqAslmn>!~",
"5BCDEFFGHHEIJKDLM~",
" 5~~~~~~~~~~~~~~~a"};
