/* XPM */
static char * saveall_xpm[] = {
"18 18 96 2",
"  	c None",
". 	c #5E5E5E",
"+ 	c #4A4A4A",
"@ 	c #626262",
"# 	c #6E6E6E",
"$ 	c #5A5A5A",
"% 	c #666666",
"& 	c #525252",
"* 	c #262626",
"= 	c #0C0C0C",
"- 	c #373737",
"; 	c #4F4F4F",
"> 	c #AAAAAA",
", 	c #434343",
"' 	c #858585",
") 	c #8A8A8A",
"! 	c #A0A0A0",
"~ 	c #696969",
"{ 	c #464646",
"] 	c #606060",
"^ 	c #404040",
"/ 	c #5B5B5B",
"( 	c #767676",
"_ 	c #6D6D6D",
": 	c #969696",
"< 	c #3D3D3D",
"[ 	c #3A3A3A",
"} 	c #474747",
"| 	c #3F3F3F",
"1 	c #515151",
"2 	c #656565",
"3 	c #9C9C9C",
"4 	c #808080",
"5 	c #838383",
"6 	c #727272",
"7 	c #A1A1A1",
"8 	c #353535",
"9 	c #282828",
"0 	c #9A9A9A",
"a 	c #777777",
"b 	c #999999",
"c 	c #292929",
"d 	c #6C6C6C",
"e 	c #868686",
"f 	c #101010",
"g 	c #8E8E8E",
"h 	c #191919",
"i 	c #686868",
"j 	c #828282",
"k 	c #787878",
"l 	c #9E9E9E",
"m 	c #5C5C5C",
"n 	c #0E0E0E",
"o 	c #7F7F7F",
"p 	c #929292",
"q 	c #AEAEAE",
"r 	c #B6B6B6",
"s 	c #C5C5C5",
"t 	c #5F5F5F",
"u 	c #757575",
"v 	c #7A7A7A",
"w 	c #797979",
"x 	c #7D7D7D",
"y 	c #7C7C7C",
"z 	c #8C8C8C",
"A 	c #8B8B8B",
"B 	c #888888",
"C 	c #202020",
"D 	c #E3E3E3",
"E 	c #CACACA",
"F 	c #D9D9D9",
"G 	c #E2E2E2",
"H 	c #E9E9E9",
"I 	c #565656",
"J 	c #6F6F6F",
"K 	c #343434",
"L 	c #484848",
"M 	c #ABABAB",
"N 	c #A5A5A5",
"O 	c #919191",
"P 	c #C2C2C2",
"Q 	c #D7D7D7",
"R 	c #AFAFAF",
"S 	c #0B0B0B",
"T 	c #636363",
"U 	c #A8A8A8",
"V 	c #555555",
"W 	c #989898",
"X 	c #2F2F2F",
"Y 	c #1B1B1B",
"Z 	c #313131",
"` 	c #393939",
" .	c #414141",
"..	c #1D1D1D",
"+.	c #252525",
"@.	c #939393",
"        . + @ # # # # # # # $ + %   ",
"        + & * = = = = = = = - ; + > ",
"        , ' ) # # # # # # # ! ~ { > ",
"      ] ^ / ( # # # _ @ % # : < [ > ",
". + } < < < < < < < | + 1 2 3 ^ [ > ",
"+ & 4 < < < < < < < } 5 + 6 7 8 [ > ",
"+ 9 0 # # # # # # # a b c d e c [ > ",
"+ f ) # # # # # # # ( g h i j c [ > ",
"+ f ) # # # # # # # k l h m ( c [ > ",
"+ n o p p p p q r r s t h $ u c [ > ",
"+ n v v w w w w w x y t h $ u c [ > ",
"+ n w o g g z A A ' B t h ; / C [ > ",
"+ n a 0 D E F G H I J t h K h h L M ",
"+ n a p N } O P Q I J t h t v v ) R ",
"+ S T p U V W P Q I J t h v r       ",
"p X Y Z [ c `  .L ..+.C h v         ",
"  @.[ [ [ [ [ [ [ [ [ [ L )         ",
"    > > > > > > > > > > M R         "};
