/* XPM */
static char * SaveAs_xpm[] = {
"18 18 22 1",
" 	c None",
".	c #FFFFFF",
"+	c #DADADA",
"@	c #CECECE",
"#	c #C2C2C2",
"$	c #B6B6B6",
"%	c #AAAAAA",
"&	c #9E9E9E",
"*	c #929292",
"=	c #FFC66B",
"-	c #FFFF00",
";	c #DCDC00",
">	c #FFAA00",
",	c #DC9200",
"'	c #800000",
")	c #7A7A7A",
"!	c #6E6E6E",
"~	c #626262",
"{	c #565656",
"]	c #4A4A4A",
"^	c #3E3E3E",
"/	c #000000",
"!]]!,!!!!!!!!!!]]!",
"]]]/=,/////////]]]",
"]]),-=,!!!!!!!&)]]",
"]/,>-;>,!!!!!!&)/]",
"=---.----=!!!!$)/]",
"],>;-;;>,!!!!!#)/]",
"]/,>-;>,!!!!!!#)/]",
"]/),-=,!!!!!!!$)/]",
"]/))->**%%$$$$))/]",
"]/))->))))))))))/]",
"]/))->{{{{{~~~))/]",
"]/){=,+++++#^~&)/]",
"]/){,{^.@#@+^~&)/]",
"]/){~{^.@#@+^~&)/]",
"]/){~{^.#@#+^~&)/]",
"]/]{%%%####+^~&)/]",
"%]///////////////]",
" %]]]]]]]]]]]]]]]!"};
