/* XPM */
static char * search_xpm[] = {
"18 18 83 1",
" 	c None",
".	c #9A9A9A",
"+	c #6F6F6F",
"@	c #626262",
"#	c #777777",
"$	c #AAAAAA",
"%	c #7F7F7F",
"&	c #545454",
"*	c #343434",
"=	c #161616",
"-	c #181818",
";	c #151515",
">	c #484848",
",	c #575757",
"'	c #8A8A8A",
")	c #363636",
"!	c #9E9EA3",
"~	c #CCCCD6",
"{	c #D9D9E2",
"]	c #C3C3CC",
"^	c #8C8C8D",
"/	c #282828",
"(	c #424242",
"_	c #898989",
":	c #C9C9CE",
"<	c #DDDDF1",
"[	c #D4D4FF",
"}	c #C8C8FF",
"|	c #D1D1FF",
"1	c #D8D8E9",
"2	c #C2C2C2",
"3	c #2B2B2B",
"4	c #686868",
"5	c #F2F2FF",
"6	c #D9D4FF",
"7	c #BBB1FF",
"8	c #C2C0FF",
"9	c #D2D2FF",
"0	c #D7D7EA",
"a	c #838383",
"b	c #393939",
"c	c #D2C0FF",
"d	c #C7B1FF",
"e	c #BFB1FF",
"f	c #C0BFFF",
"g	c #B4B4B4",
"h	c #B3B1FF",
"i	c #BAB1FF",
"j	c #CAC9FF",
"k	c #A9A9A9",
"l	c #D9D9DE",
"m	c #454545",
"n	c #B6B6B6",
"o	c #000000",
"p	c #0E0E0E",
"q	c #3E3E3E",
"r	c #4E4D3A",
"s	c #464300",
"t	c #1D1B12",
"u	c #383838",
"v	c #575400",
"w	c #AE9209",
"x	c #7C6A1A",
"y	c #282415",
"z	c #333333",
"A	c #1F1D12",
"B	c #8C781A",
"C	c #D1B962",
"D	c #7A6921",
"E	c #2D2917",
"F	c #323232",
"G	c #2B2715",
"H	c #897621",
"I	c #CDB55A",
"J	c #7A6923",
"K	c #312D17",
"L	c #877523",
"M	c #625D1A",
"N	c #1A1A12",
"O	c #655F1A",
"P	c #4C4B09",
"Q	c #32322B",
"R	c #808080",
"   .+@@@#$        ",
"  %&*=-;>,'       ",
" %)>!~{]^/(_      ",
".&>:<[}|1234.     ",
"+*!<567890ab+     ",
"@=~[6cdef[g=@     ",
"@-{}7dddh[2=@     ",
"@;]|8edij[k=@     ",
"#>^19fhj[l+m#     ",
"$,/20[[[lnopq     ",
" '(3ag2k+orstu    ",
"  _4b===mpvwxyz   ",
"   .+@@@#qABCDEF  ",
"          uGHIJEz ",
"           zKLIDyu",
"            FKHCMN",
"             zGOPQ",
"              uNQR"};
