/* XPM */
static char *stop_xpm[]={
"18 18 74 2",
"Qt c None",
".a c #000000",
".K c #110005",
".H c #130006",
"#f c #160007",
".6 c #21161a",
".b c #212121",
".7 c #261d20",
".# c #2c2c2c",
".i c #2d2426",
"#b c #2f2025",
"#h c #30272a",
".d c #312a2c",
"#g c #322126",
".C c #34272b",
".r c #392b2e",
".k c #392e31",
"#a c #3c3c3c",
".x c #3d2d31",
".j c #434343",
".A c #565656",
".c c #626262",
"#c c #690022",
".8 c #6b0023",
"#e c #760027",
"## c #770027",
".5 c #790028",
".s c #8e384c",
".l c #91394e",
".B c #930b37",
".3 c #980032",
".e c #9a3f55",
".w c #9b3450",
".q c #a33955",
".R c #a60036",
".N c #ad1a48",
".J c #ad2a54",
".h c #b1435f",
".G c #bd1047",
"#d c #c60042",
".9 c #c70042",
".4 c #ca0043",
"#. c #cb0043",
".F c #cc0044",
".o c #dc0049",
".T c #df074d",
".0 c #e2064b",
".W c #e20c50",
".M c #e31053",
".n c #e51354",
".p c #e51c5b",
".u c #e61555",
".v c #e6205e",
".y c #e71656",
".z c #e7215f",
".U c #ea0f4f",
".Y c #eb104f",
".2 c #eb1f5b",
".Q c #ec205c",
".Z c #ee1350",
".1 c #f11651",
".V c #f44a79",
".P c #f71d54",
".X c #f72f62",
".t c #fa4a77",
".m c #fb4b77",
".g c #fb5f87",
".f c #fc6289",
".O c #ff6389",
".D c #ff678c",
".L c #ff688d",
".S c #ff6d91",
".I c #ff7093",
".E c #ffffff",
"QtQtQtQtQt.#.a.a.a.a.a.a.b.cQtQtQtQt",
"QtQtQtQt.d.e.f.g.g.g.g.g.h.i.jQtQtQt",
"QtQtQt.k.l.m.n.o.o.o.o.o.p.q.rQtQtQt",
"QtQt.k.s.t.u.o.o.o.o.o.o.o.v.w.xQtQt",
"Qt.d.l.t.y.o.o.o.o.o.o.o.o.o.z.w.r.A",
".#.e.m.u.o.o.o.o.o.o.o.o.o.o.o.v.B.C",
".a.D.E.E.E.E.E.E.F.E.E.E.o.E.E.E.G.H",
".a.I.E.o.o.o.E.o.E.o.o.o.E.E.o.E.J.K",
".a.L.E.E.E.o.E.o.E.o.M.o.E.E.E.E.N.K",
".a.O.P.o.E.o.E.o.E.o.o.o.E.E.Q.o.R.K",
".a.S.E.E.E.o.E.o.T.E.E.E.o.E.U.o.R.K",
".a.V.W.X.Y.o.Z.0.o.P.P.1.n.2.o.o.R.K",
".b.3.4.o.o.o.o.o.o.o.o.o.o.o.o.F.5.6",
".c.7.8.9.o.o.o.o.o.o.o.o.o.o#.##.H#a",
"Qt.j#b#c#d.o.o.o.o.o.o.o.o#.#e#f.aQt",
"QtQtQt#g#c.9.o.o.o.o.o.o.F###f.aQtQt",
"QtQtQtQt#b.8.R.R.R.R.R.R.5.H.aQtQtQt",
"QtQtQtQt.A#h.K.K.K.K.K.K.6#aQtQtQtQt"};
