/* XPM */
static char * undo_xpm[] = {
"18 18 108 2",
"  	c None",
". 	c #9D9D9D",
"+ 	c #5C5C5C",
"@ 	c #3C3C3C",
"# 	c #868686",
"$ 	c #5D5D5D",
"% 	c #512D36",
"& 	c #261015",
"* 	c #4C4C4C",
"= 	c #ADADAD",
"- 	c #A2A2A2",
"; 	c #CD6B84",
"> 	c #55313A",
", 	c #838383",
"' 	c #878787",
") 	c #8C8C8C",
"! 	c #9E9E9E",
"~ 	c #A4A4A4",
"{ 	c #ABABAB",
"] 	c #5B5B5B",
"^ 	c #492830",
"/ 	c #D06C85",
"( 	c #F26590",
"_ 	c #4D1426",
": 	c #191919",
"< 	c #212121",
"[ 	c #232323",
"} 	c #2E2E2E",
"| 	c #626262",
"1 	c #949494",
"2 	c #B6B6B6",
"3 	c #595959",
"4 	c #391F26",
"5 	c #D98297",
"6 	c #F38DAD",
"7 	c #DF1155",
"8 	c #CE0044",
"9 	c #C60042",
"0 	c #C00040",
"a 	c #A20036",
"b 	c #84002B",
"c 	c #430F20",
"d 	c #606060",
"e 	c #969696",
"f 	c #565656",
"g 	c #201215",
"h 	c #E97F99",
"i 	c #F5A8C1",
"j 	c #DE1054",
"k 	c #DC0049",
"l 	c #DF004A",
"m 	c #E0004A",
"n 	c #DB0049",
"o 	c #D60047",
"p 	c #A80037",
"q 	c #350918",
"r 	c #656565",
"s 	c #AFAFAF",
"t 	c #110005",
"u 	c #AD1846",
"v 	c #F34778",
"w 	c #AD0039",
"x 	c #21000B",
"y 	c #616161",
"z 	c #260812",
"A 	c #95001F",
"B 	c #C50020",
"C 	c #C7001D",
"D 	c #97001D",
"E 	c #85002C",
"F 	c #970032",
"G 	c #D70047",
"H 	c #C70042",
"I 	c #31020E",
"J 	c #616160",
"K 	c #350F1B",
"L 	c #90001A",
"M 	c #B60005",
"N 	c #3E0000",
"O 	c #111111",
"P 	c #222222",
"Q 	c #351B24",
"R 	c #950031",
"S 	c #D80048",
"T 	c #6F1310",
"U 	c #090300",
"V 	c #A5A5A5",
"W 	c #5F5F5F",
"X 	c #3F1221",
"Y 	c #8D0018",
"Z 	c #3A0005",
"` 	c #959595",
" .	c #7B7B7B",
"..	c #3E0014",
"+.	c #C90042",
"@.	c #A0A0A0",
"#.	c #421322",
"$.	c #1C0009",
"%.	c #363636",
"&.	c #7D7D7D",
"*.	c #1B0009",
"=.	c #59001D",
"-.	c #620020",
";.	c #310907",
">.	c #343230",
",.	c #898989",
"'.	c #414141",
").	c #828282",
"                                    ",
"                                    ",
"                                    ",
"        . + @ #                     ",
"      . $ % & * =                   ",
"    - + % ; > * , ' ' ' ) ! ~       ",
"  { ] ^ / ( _ : < < < < [ } | 1     ",
"2 3 4 5 6 7 8 9 9 9 9 0 a b c d e   ",
"f g h i j k l m m m m l n o p q r s ",
"| t u v k k k k k k k k k k k w x ) ",
"2 y z A B C D E E E E F G k k H I J ",
"  = d K L M N O P [ [ Q R S k k T U ",
"    V W X Y Z * ` ! !  ...+.k k T U ",
"      @.W #.$.*        ...+.k k T U ",
"        ! W %.&.       .*.=.-.-.;.>.",
"                      ,.'.'.'.'.'.).",
"                                    ",
"                                    "};
