/* XPM */
static char *viewmag_plus[] = {
/* columns rows colors chars-per-pixel */
"22 22 211 2",
"   c #5F3017",
".  c #613217",
"X  c #683919",
"o  c #6A3818",
"O  c #693A1D",
"+  c #6F3B18",
"@  c #784218",
"#  c #7D4618",
"$  c #7F5432",
"%  c #404063",
"&  c #464667",
"*  c #464668",
"=  c #4B4B6B",
"-  c #4F4F6F",
";  c #4E5677",
":  c #4A567D",
">  c #4F5B7F",
",  c #515172",
"<  c #575877",
"1  c #585877",
"2  c #5B5C7A",
"3  c #6C6373",
"4  c #746A79",
"5  c #515B81",
"6  c #5B6886",
"7  c #5E6A87",
"8  c #596F97",
"9  c #5A73A2",
"0  c #626280",
"q  c #676784",
"w  c #606B87",
"e  c #6B6B87",
"r  c #6F7A9C",
"t  c #74748E",
"y  c #75758F",
"u  c #7B7B95",
"i  c #7F7F97",
"p  c #647AA7",
"a  c #098D00",
"s  c #09C600",
"d  c #5D80B6",
"f  c #7F859C",
"g  c #7C90B6",
"h  c #7C98C4",
"j  c #70A2CF",
"k  c #74A7DC",
"l  c #7AAFE3",
"z  c #76BBF5",
"x  c #77BCF5",
"c  c #7CC2F5",
"v  c #7DC2F6",
"b  c #874D19",
"n  c #8D5019",
"m  c #975819",
"M  c #985919",
"N  c #97672F",
"B  c #98672F",
"V  c #9F6C2E",
"C  c #A66219",
"Z  c #B7680D",
"A  c #BD6C0E",
"S  c #B66D1A",
"D  c #AA6C27",
"F  c #A8732D",
"G  c #B27A2D",
"H  c #BE7620",
"J  c #847678",
"K  c #C3720F",
"L  c #C97610",
"P  c #CF7B10",
"I  c #BCEA7E",
"U  c #E29E32",
"Y  c #E09C34",
"T  c #ECA636",
"R  c #ECA737",
"E  c #ECA839",
"W  c #EBCB7C",
"Q  c #808098",
"!  c #818199",
"~  c #87879E",
"^  c #87879F",
"/  c #8C90A8",
"(  c #9292A7",
")  c #9C9CB0",
"_  c #9E9EB0",
"`  c #96A6B7",
"'  c #93A1B8",
"]  c #9CA2B7",
"[  c #A0928F",
"{  c #A1A1B3",
"}  c #A7A7B8",
"|  c #A4AABE",
" . c #A8A8B8",
".. c #A9A9B9",
"X. c #899EC3",
"o. c #86AAD7",
"O. c #8DA8D0",
"+. c #87B6D2",
"@. c #8EB8DD",
"#. c #92ACC3",
"$. c #99A8C5",
"%. c #9AACC9",
"&. c #87CBF7",
"*. c #88CCF7",
"=. c #89CCF7",
"-. c #89CEF7",
";. c #8CCFF7",
":. c #8DD0F7",
">. c #8ED1F8",
",. c #8ED2F8",
"<. c #8FD2F8",
"1. c #9ED2E9",
"2. c #95D3F3",
"3. c #90D3F8",
"4. c #91D5F8",
"5. c #92D5F8",
"6. c #95D7F8",
"7. c #96D8F8",
"8. c #97D8F8",
"9. c #97DAF9",
"0. c #98DBF9",
"q. c #99DBF9",
"w. c #99DCF9",
"e. c #9ADDF9",
"r. c #9BDDF9",
"t. c #9CDEF9",
"y. c #9EE0F9",
"u. c #9FE1F9",
"i. c #AEE0E8",
"p. c #A0E0F9",
"a. c #A0E2FB",
"s. c #A2E3FB",
"d. c #A2E4FB",
"f. c #A3E4FB",
"g. c #A4E6FB",
"h. c #A6E6FB",
"j. c #A6E7FB",
"k. c #A7E8FB",
"l. c #A8E8FB",
"z. c #AAE8FB",
"x. c #ABECFC",
"c. c #AEE9FB",
"v. c #AFEEFC",
"b. c #B0EEFC",
"n. c #B2EEFC",
"m. c #B0F0FC",
"M. c #B1F1FC",
"N. c #B2F2FD",
"B. c #B3F2FD",
"V. c #B3F3FD",
"C. c #B5F3FD",
"Z. c #B7F3FD",
"A. c #B7F7FD",
"S. c #B8F7FD",
"D. c #BCF9FD",
"F. c #BDFBFE",
"G. c #BFFBFE",
"H. c #BEFCFE",
"J. c #BFFCFE",
"K. c #F6D384",
"L. c #F6D585",
"P. c #F6D687",
"I. c #F6D688",
"U. c #F6D78B",
"Y. c #F2DC96",
"T. c #FDE89B",
"R. c #FDE99E",
"E. c #FDE99F",
"W. c #FDEBA0",
"Q. c #C4DBE2",
"!. c #CAD7E0",
"~. c #CED7E0",
"^. c #C2FDFE",
"/. c #C3FDFE",
"(. c #C5FEFE",
"). c #C9FBFE",
"_. c #CAF9FD",
"`. c #C9FCFE",
"'. c #C8FEFE",
"]. c #C9FEFE",
"[. c #CAFEFE",
"{. c #CBFEFE",
"}. c #CCFEFE",
"|. c #CEFEFE",
" X c #CFFEFE",
".X c #D3F6FD",
"XX c #D0FEFE",
"oX c #D2FEFE",
"OX c #D3FEFE",
"+X c #D5FDFE",
"@X c #D5FEFE",
"#X c #D6FEFE",
"$X c #D8FEFE",
"%X c #DAFEFE",
"&X c #DBFEFE",
"*X c #DDFEFE",
"=X c #DEFEFE",
"-X c #E0FEFE",
";X c #E1FEFE",
":X c #E2FEFE",
">X c #E4FEFE",
",X c #E7FEFE",
"<X c #E8FEFE",
"1X c #E9FEFE",
"2X c #ECFEFE",
"3X c #F0FEFE",
"4X c #F2FEFE",
"5X c #F7FEFE",
"6X c #FEFEFE",
"7X c gray100",
"8X c None",
/* pixels */
"8X8X8X} ..$.O.o.%.| } 8X8X8X8X8X8X8X8X8X8X8X",
"8X8X_ X.l c ;.<.<.-.@.] ) 8X8X8X8X8X8X8X8X8X",
"8X( h x ;.9.r.r.6.u.u.2.) ( 8X8X8X8X8X8X8X8X",
"^ g z 4.j.M.C.v.t.q.j.v.1./ 8X8X8X8X8X8X8X8X",
"Q k =.f.D.|.oXz.H.k.z.M.A.#.f 8X8X8X8X8X8X8X",
"r c 4.v.{.:X,Xj._.A.H.H.H.i.t 8X8X8X8X8X8X8X",
"p &.9.M.|.,X.XM.+X(.{.{.{.(.e 8X8X8X8X8X8X8X",
"d ;.w.w.u.c.M.{.*X|.oX+XoX{.3 8X8X8X8X8X8X8X",
"9 ;.w.z.v.v._.%XoX+X*X:X:X%X1 8X8X8X8X8X8X8X",
"5 -.r.;.l.Z.^.{.+X:X,X2X,XQ.- 8X8X8X8X8X8X8X",
"* j r.q.a.M.^.|.%X:X4X5X4Xf * 8X8X8X8X8X8X8X",
"% : 4.j.j.C.^.|.%X:X4X5X~., q 8X8X8X8X8X8X8X",
"8X% 8 r.M.M.^.{.+X:X,X!.2 Q y 8X8X8X8X8X8X8X",
"8X8X% > +.M.H.{.|.%X` < ^ { [ H S 8X8X8X8X8X",
"8X8X8X% % ; 6 7 7 % % u y J D Y P C 8X8X8X8X",
"8X8Xs s s 8X8X8X8X8X8X8X8XM W U.E L m 8X8X8X",
"8X8Xs I a 8X8X8X8X8X8X8X8Xb G T.P.E K b 8X8X",
"s s s I a a a 8X8X8X8X8X8X8X# F R.P.T A @ 8X",
"s I I I I I a 8X8X8X8X8X8X8X8X+ V E.P.T Z o ",
"a a s I a a a 8X8X8X8X8X8X8X8X8X. N E.K.U O ",
"8X8Xs I a 8X8X8X8X8X8X8X8X8X8X8X8X  N Y.$ 4 ",
"8X8Xa a a 8X8X8X8X8X8X8X8X8X8X8X8X8X  X 3 = "
};
