/* XPM */
static char * world_xpm[] = {
"18 18 218 2",
"  	c None",
". 	c #B6B6B6",
"+ 	c #AEAEAE",
"@ 	c #8E8E8E",
"# 	c #717171",
"$ 	c #6E6E6E",
"% 	c #8A8A8A",
"& 	c #ADADAD",
"* 	c #949494",
"= 	c #596063",
"- 	c #434648",
"; 	c #252525",
"> 	c #606060",
", 	c #636363",
"' 	c #1E2020",
") 	c #313E45",
"! 	c #545B5F",
"~ 	c #818181",
"{ 	c #25343B",
"] 	c #004B72",
"^ 	c #75AAC8",
"/ 	c #EDF3F7",
"( 	c #F5F5F5",
"_ 	c #D9D9D9",
": 	c #DBE8EF",
"< 	c #0C80BC",
"[ 	c #004C67",
"} 	c #1E2C2C",
"| 	c #777777",
"1 	c #26332E",
"2 	c #005A75",
"3 	c #1AA2E8",
"4 	c #4FB9F7",
"5 	c #ACDFFF",
"6 	c #9BC6E2",
"7 	c #C2E7FF",
"8 	c #8AC1DF",
"9 	c #25A6CB",
"0 	c #006767",
"a 	c #004545",
"b 	c #202C2C",
"c 	c #25312C",
"d 	c #00533F",
"e 	c #32AEB6",
"f 	c #9DDDFF",
"g 	c #8AD2FF",
"h 	c #45B7FF",
"i 	c #6FBEF0",
"j 	c #89C7EF",
"k 	c #68BBE3",
"l 	c #139273",
"m 	c #496D2C",
"n 	c #2C582C",
"o 	c #263914",
"p 	c #2B2B20",
"q 	c #888888",
"r 	c #B1B1B1",
"s 	c #59615E",
"t 	c #00543E",
"u 	c #22A498",
"v 	c #AAD7D7",
"w 	c #C7E9FF",
"x 	c #56BDFF",
"y 	c #38B1FF",
"z 	c #DAE8F0",
"A 	c #EFEFEF",
"B 	c #CFD5D3",
"C 	c #8AAC78",
"D 	c #A49200",
"E 	c #626200",
"F 	c #555500",
"G 	c #2B2B00",
"H 	c #54544E",
"I 	c #3B3F36",
"J 	c #3D7A47",
"K 	c #54BEE7",
"L 	c #91CDF1",
"M 	c #38B2FF",
"N 	c #33B0FF",
"O 	c #67C4FF",
"P 	c #6EC6FF",
"Q 	c #49BFBC",
"R 	c #649A5F",
"S 	c #3A3A00",
"T 	c #38382D",
"U 	c #A1A1A1",
"V 	c #15150A",
"W 	c #6F752C",
"X 	c #A3B9C6",
"Y 	c #A6BAC6",
"Z 	c #A9C4D6",
"` 	c #B7D1E2",
" .	c #B4D0E2",
"..	c #B2CFE2",
"+.	c #08B6C9",
"@.	c #087F5A",
"#.	c #67750D",
"$.	c #5A5A00",
"%.	c #4C4C00",
"&.	c #141409",
"*.	c #7F7F7F",
"=.	c #3A3A31",
"-.	c #4A4A04",
";.	c #68684A",
">.	c #C4C4C4",
",.	c #EAEAEA",
"'.	c #CDFBFB",
").	c #B6FBFB",
"!.	c #40F7F7",
"~.	c #4EE7D1",
"{.	c #A99600",
"].	c #696700",
"^.	c #575700",
"/.	c #3E3E00",
"(.	c #155E6E",
"_.	c #014C74",
":.	c #646B70",
"<.	c #3F3F37",
"[.	c #626228",
"}.	c #C6C6C6",
"|.	c #DADADA",
"1.	c #39AFFB",
"2.	c #0092DC",
"3.	c #0B7142",
"4.	c #216567",
"5.	c #007AB9",
"6.	c #005583",
"7.	c #626A6F",
"8.	c #141414",
"9.	c #919191",
"0.	c #BABFC2",
"a.	c #C4D3DC",
"b.	c #6ABBEE",
"c.	c #0E9BE9",
"d.	c #1AA3F5",
"e.	c #0797E3",
"f.	c #21A7FB",
"g.	c #0A5856",
"h.	c #5A6007",
"i.	c #296960",
"j.	c #0083C7",
"k.	c #0078B6",
"l.	c #041F2D",
"m.	c #7B7B7B",
"n.	c #3E3E3D",
"o.	c #79807B",
"p.	c #5EA5C8",
"q.	c #0D9AE8",
"r.	c #139EEE",
"s.	c #0696E2",
"t.	c #1AA3F4",
"u.	c #008CD0",
"v.	c #115F5A",
"w.	c #4B570C",
"x.	c #295F52",
"y.	c #0077B5",
"z.	c #006195",
"A.	c #2B3E49",
"B.	c #A0A0A0",
"C.	c #575754",
"D.	c #1A3A31",
"E.	c #008FD8",
"F.	c #008ED6",
"G.	c #1990CC",
"H.	c #0F91D2",
"I.	c #008CD3",
"J.	c #0091DB",
"K.	c #008AD0",
"L.	c #0592D9",
"M.	c #2383AE",
"N.	c #105856",
"O.	c #1B5957",
"P.	c #005D8E",
"Q.	c #00324E",
"R.	c #495155",
"S.	c #ACACAC",
"T.	c #1E3039",
"U.	c #005480",
"V.	c #1A719E",
"W.	c #7195A7",
"X.	c #5B92AD",
"Y.	c #0D7EB8",
"Z.	c #0086CA",
"`.	c #5DA5C9",
" +	c #9FAEB6",
".+	c #286F8C",
"++	c #004761",
"@+	c #002C45",
"#+	c #192328",
"$+	c #20272C",
"%+	c #1A3342",
"&+	c #57636B",
"*+	c #8F8F8F",
"=+	c #729DB2",
"-+	c #89BFDB",
";+	c #659BB7",
">+	c #B7B7B7",
",+	c #9FA8AD",
"'+	c #285772",
")+	c #1B242A",
"!+	c #6D6D6D",
"~+	c #A5A5A5",
"{+	c #092333",
"]+	c #444F56",
"^+	c #C8C8C8",
"/+	c #FCFCFC",
"(+	c #E7E7E7",
"_+	c #68757D",
":+	c #002C46",
"<+	c #A3A3A3",
"[+	c #4E5458",
"}+	c #35383A",
"|+	c #373737",
"1+	c #5B5B5B",
"2+	c #2C2C2C",
"3+	c #424546",
"4+	c #696969",
"5+	c #676767",
"          . + @ # $ % & . .         ",
"        * = - ; > , ' ) ! @ &       ",
"      ~ { ] ^ / ( _ : < [ } |       ",
"    ~ 1 2 3 4 5 6 7 8 9 0 a b |     ",
"  * c d e f g h i j k l m n o p q r ",
". s t u v w x y z A B C D E F G H & ",
"+ I J K L x M N O P Q R D E F S T U ",
"@ V W X Y Z `  ...+.@.#.D $.%.S &.*.",
"# =.-.;.>.,.'.).).!.~.{.].^./.(._.:.",
"$ <.[.. }.|.|.|.1.2.3.E E ^.4.5.6.7.",
"% 8.9.0.a.b.c.d.e.f.g.h.$.i.j.k.l.m.",
"& n.o.p.q.q.r.s.t.2.u.v.w.x.y.z.A.B.",
". C.D.E.F.G.H.I.J.K.L.M.N.O.P.Q.R.S.",
". @ T.U.V.W.X.Y.Z.5.`. +.+++@+#+~ r ",
"  & | $+%+&+*+=+-+;+>+,+'+@+)+!+~+  ",
"      | $+{+]+^+/+(+r _+:+#+!+<+    ",
"        q [+}+|+1+> 2+3+R.~ ~+      ",
"        r & U *.4+5+m.B.S.r         "};
