/* XPM */
static char * xbuild_xpm[] = {
"18 18 92 2",
"  	c None",
". 	c #878787",
"+ 	c #626262",
"@ 	c #8A8A8A",
"# 	c #AAAAAA",
"$ 	c #727272",
"% 	c #4A4A4A",
"& 	c #1C1C1C",
"* 	c #1B1B1B",
"= 	c #383838",
"- 	c #515151",
"; 	c #282828",
"> 	c #181818",
", 	c #262626",
"' 	c #575757",
") 	c #777777",
"! 	c #989898",
"~ 	c #393939",
"{ 	c #FCFCFC",
"] 	c #E9E9E9",
"^ 	c #B0B0B0",
"/ 	c #949494",
"( 	c #E8E8E8",
"_ 	c #F8F8F8",
": 	c #D7D7D7",
"< 	c #B2B2B2",
"[ 	c #2A2A2A",
"} 	c #4F4F4F",
"| 	c #808080",
"1 	c #363636",
"2 	c #E6E6E6",
"3 	c #CACACA",
"4 	c #B4B4B4",
"5 	c #ABABAB",
"6 	c #DADADA",
"7 	c #D1D1D1",
"8 	c #C6C6C6",
"9 	c #C8C8C8",
"0 	c #C3C3C3",
"a 	c #A0A0A0",
"b 	c #5C5C5C",
"c 	c #3D3D3D",
"d 	c #2D2D2D",
"e 	c #BCBCBC",
"f 	c #A1A1A1",
"g 	c #838383",
"h 	c #A4A4A4",
"i 	c #A6A6A6",
"j 	c #8E8E8E",
"k 	c #8F8F8F",
"l 	c #B3B3B3",
"m 	c #3C3C3C",
"n 	c #4C4C4C",
"o 	c #757575",
"p 	c #4B4B4B",
"q 	c #818181",
"r 	c #8B8B8B",
"s 	c #323232",
"t 	c #3B3B3B",
"u 	c #505050",
"v 	c #1F1F1F",
"w 	c #747474",
"x 	c #414141",
"y 	c #161616",
"z 	c #707070",
"A 	c #7E7E7E",
"B 	c #444444",
"C 	c #C5C5C5",
"D 	c #0B0B0B",
"E 	c #C2C2C2",
"F 	c #A5A5A5",
"G 	c #373737",
"H 	c #080808",
"I 	c #010101",
"J 	c #000000",
"K 	c #0A0A0A",
"L 	c #252525",
"M 	c #7A7A7A",
"N 	c #292929",
"O 	c #4E4E4E",
"P 	c #595959",
"Q 	c #565656",
"R 	c #191919",
"S 	c #212121",
"T 	c #555555",
"U 	c #5A5A5A",
"V 	c #272727",
"W 	c #585858",
"X 	c #424242",
"Y 	c #1A1A1A",
"Z 	c #0C0C0C",
"` 	c #060606",
"    . + + @ # $ + + + $ #           ",
"  . % & * = - ; & > > , ' ) !       ",
"  ' ~ { ] ^ / ( _ : : < [ = } |     ",
"  ' 1 2 3 4 5 6 7 8 8 9 0 a b c |   ",
"  ' d e f g + @ h i h j $ k l m n   ",
"  o m % m p ' ~ q r o s 1 t u v n   ",
"    w x x p + y z A ; B   p x x     ",
"            + y 9 C D +             ",
"            + y C C D +             ",
"            + y E E D +             ",
"          F G H I J K L F           ",
"          M N u v D O * M           ",
"          $ , P Q s t R $           ",
"          + S T p s B y +           ",
"          + S U n s B y +           ",
"          + S b Q s t y +           ",
"          o V W X s O Y o           ",
"          F b x Z ` x } F           "};
